<svg width="98" height="2" viewBox="0 0 98 2" fill="none" xmlns="http://www.w3.org/2000/svg">
<circle cx="1" cy="1" r="1" fill="#171614"/>
<circle cx="5" cy="1" r="1" fill="#171614"/>
<circle cx="9" cy="1" r="1" fill="#171614"/>
<circle cx="13" cy="1" r="1" fill="#171614"/>
<circle cx="17" cy="1" r="1" fill="#171614"/>
<circle cx="21" cy="1" r="1" fill="#171614"/>
<circle cx="25" cy="1" r="1" fill="#171614"/>
<circle cx="29" cy="1" r="1" fill="#171614"/>
<circle cx="33" cy="1" r="1" fill="#171614"/>
<circle cx="37" cy="1" r="1" fill="#171614"/>
<circle cx="41" cy="1" r="1" fill="#171614"/>
<circle cx="45" cy="1" r="1" fill="#171614"/>
<circle cx="49" cy="1" r="1" fill="#171614"/>
<circle cx="53" cy="1" r="1" fill="#171614"/>
<circle cx="57" cy="1" r="1" fill="#171614"/>
<circle cx="61" cy="1" r="1" fill="#171614"/>
<circle cx="65" cy="1" r="1" fill="#171614"/>
<circle cx="69" cy="1" r="1" fill="#171614"/>
<circle cx="73" cy="1" r="1" fill="#171614"/>
<circle cx="77" cy="1" r="1" fill="#171614"/>
<circle cx="81" cy="1" r="1" fill="#171614"/>
<circle cx="85" cy="1" r="1" fill="#171614"/>
<circle cx="89" cy="1" r="1" fill="#171614"/>
<circle cx="93" cy="1" r="1" fill="#171614"/>
<circle cx="97" cy="1" r="1" fill="#171614"/>
</svg>
