<svg width="347" height="65" viewBox="0 0 347 65" fill="none" xmlns="http://www.w3.org/2000/svg">
<path d="M62.9 63.98C62.8982 61.0605 63.3815 58.1611 64.33 55.4L67.33 46.79C67.6937 45.7577 67.8103 44.6544 67.6703 43.5689C67.5304 42.4834 67.1379 41.4458 66.5242 40.5395C65.9106 39.6331 65.093 38.8833 64.1371 38.3502C63.1812 37.8172 62.1135 37.5157 61.02 37.47L57.63 37.3C57.2441 37.2797 56.8582 37.338 56.4956 37.4715C56.133 37.6049 55.8013 37.8107 55.5207 38.0763C55.2401 38.342 55.0164 38.6619 54.8633 39.0167C54.7102 39.3714 54.6308 39.7536 54.63 40.14V63.98H41.99V0.709991H59.99C73.76 0.709991 77.59 7.91 77.59 19.99C77.59 22.99 75.33 27.2 71.59 29.36C68.5482 30.9274 65.1909 31.7855 61.77 31.87C61.5048 31.87 61.2504 31.9753 61.0629 32.1629C60.8754 32.3504 60.77 32.6048 60.77 32.87C60.7697 33.0065 60.7975 33.1417 60.8514 33.2671C60.9054 33.3925 60.9845 33.5055 61.0838 33.5992C61.1831 33.6929 61.3005 33.7652 61.4289 33.8118C61.5572 33.8584 61.6937 33.8782 61.83 33.87L64.16 33.8C66.4171 33.7228 68.6489 34.2955 70.59 35.45C72.4441 36.6035 73.9753 38.2085 75.0404 40.1148C76.1054 42.0211 76.6696 44.1664 76.68 46.35L76.41 54.66C76.31 57.89 76.27 60.91 77.41 63.93H62.81L62.9 63.98ZM59.9 8.80999H54.61V27.99H59.94C64.74 27.99 65.01 23.63 65.01 19.99C65.01 19.79 65.01 16.31 65.01 16.11C64.96 12.61 64.48 8.80999 59.94 8.80999H59.9Z" fill="black"/>
<path d="M111.62 63.98L109.93 55.85H94.65L92.95 63.98H79.8L96.06 0.709991H108.51L124.75 63.98H111.62ZM102.28 19.28L96.28 49.51H108.55L102.28 19.28Z" fill="black"/>
<path d="M127.57 63.98V47.04C127.572 45.4102 127.94 43.8017 128.648 42.3337C129.356 40.8658 130.386 39.576 131.66 38.56L133.9 36.77C134.536 36.2629 135.043 35.6123 135.38 34.8715C135.716 34.1307 135.872 33.3208 135.835 32.5081C135.798 31.6954 135.569 30.903 135.166 30.1959C134.764 29.4888 134.2 28.8871 133.52 28.44L132.46 27.75C130.958 26.7607 129.725 25.4142 128.872 23.8312C128.019 22.2483 127.571 20.4783 127.57 18.68V0.679993H140.19V63.95L127.57 63.98Z" fill="black"/>
<path d="M181.69 57.85C178.84 61.13 174.93 63.98 167.83 63.98H149.96V0.709991H167.83C174.93 0.709991 178.83 3.55 181.69 6.84C186.13 11.9 186.4 20.61 186.4 32.25C186.4 43.89 186.13 52.78 181.69 57.85ZM172.27 11.61C171.835 10.7448 171.159 10.0244 170.323 9.53624C169.487 9.04807 168.527 8.81315 167.56 8.85999H162.56V55.86H167.56C168.527 55.9068 169.487 55.6719 170.323 55.1837C171.159 54.6956 171.835 53.9752 172.27 53.11C173.78 50.17 173.78 40.17 173.78 33.11C173.78 26.05 173.75 14.49 172.27 11.61Z" fill="black"/>
<path d="M222.21 63.98L222.4 58.98C222.412 58.5785 222.343 58.1787 222.198 57.8043C222.053 57.4299 221.834 57.0884 221.554 56.8003C221.274 56.5121 220.939 56.283 220.569 56.1267C220.199 55.9703 219.802 55.8898 219.4 55.89C218.994 55.8915 218.592 55.9756 218.219 56.1372C217.846 56.2988 217.509 56.5345 217.23 56.83C215.01 59.19 212.05 64.73 207.43 64.73C198.36 64.73 192.14 58.42 192.14 48.02C192.14 41.09 195.52 34.96 200.76 29.36C197.83 25.45 194.81 20.47 194.81 14.97C194.81 4.12001 201.29 0.0400085 207.87 0.0400085C216.93 0.0400085 221.2 6.43001 221.2 14.04C221.2 20.1 220.06 23.41 217.54 26.82C216.491 28.2024 215.309 29.4785 214.01 30.63L209.92 34.31C209.711 34.4954 209.562 34.7393 209.492 35.0102C209.423 35.2811 209.436 35.5667 209.53 35.83V35.83C209.625 36.0987 209.799 36.3323 210.029 36.5001C210.26 36.6679 210.535 36.762 210.82 36.77L213.99 36.87C214.829 36.9055 215.638 37.1897 216.315 37.6866C216.992 38.1834 217.505 38.8704 217.79 39.66L218.03 40.34C218.096 40.5276 218.222 40.6878 218.389 40.7951C218.557 40.9025 218.755 40.9508 218.953 40.9324C219.151 40.914 219.337 40.8299 219.481 40.6936C219.626 40.5572 219.72 40.3764 219.75 40.18C220.31 36.84 220.65 32.26 220.84 29.59H230.84C230.66 36.59 229.57 42.93 226.99 48.08C230.879 51.7797 233.393 56.6921 234.12 62.01L234.39 64.01L222.21 63.98ZM206.57 38.92C204.463 41.1621 203.259 44.104 203.19 47.18C203.19 51.63 205.68 54.02 208.43 54.02C210.3 54.02 212.08 53.02 213.77 50.47L206.57 38.92ZM207.89 7.61001C205.76 7.61001 203.64 9.02001 203.64 13.83C203.64 16.46 205.05 20.1 206.58 22.73C206.741 23.0021 206.968 23.2285 207.241 23.3878C207.514 23.547 207.823 23.6338 208.138 23.6398C208.454 23.6458 208.766 23.5709 209.045 23.4221C209.324 23.2734 209.559 23.0558 209.73 22.79C211.529 19.9505 212.415 16.6283 212.27 13.27C212.27 9.70001 210.29 7.61001 207.89 7.61001Z" fill="black"/>
<path d="M255.08 40.16V63.98H242.46V40.16L229.58 0.709999H243.44L248.75 23.61L254.08 0.690002H267.95L255.08 40.16Z" fill="black"/>
<path d="M298.8 58.29C295.96 61.84 291.8 64.69 284.94 64.69C278.08 64.69 273.94 61.84 271.08 58.29C268.91 55.64 267.73 52.29 267.08 48.15C266.836 46.4931 267.05 44.8009 267.698 43.2569C268.347 41.7128 269.406 40.3755 270.76 39.39L273.59 37.33C274.256 36.8461 274.788 36.2017 275.138 35.4567C275.488 34.7117 275.643 33.8904 275.59 33.0691C275.538 32.2478 275.278 31.4532 274.835 30.7593C274.393 30.0653 273.782 29.4945 273.06 29.1L271.48 28.23C269.908 27.37 268.622 26.0694 267.78 24.4881C266.938 22.9069 266.577 21.114 266.74 19.33C267.25 13.86 268.42 9.61 271.06 6.39C273.9 2.84 278.06 0 284.92 0C291.78 0 295.92 2.84 298.78 6.39C303.22 11.82 303.49 20.17 303.49 32.34C303.49 44.51 303.24 52.87 298.8 58.29ZM289.2 10.59C288.773 9.83495 288.153 9.20681 287.404 8.76976C286.654 8.33271 285.802 8.10242 284.935 8.10242C284.068 8.10242 283.216 8.33271 282.466 8.76976C281.717 9.20681 281.097 9.83495 280.67 10.59C279.22 13.41 279 20.86 278.99 28.23V36.52C278.99 44.16 279.16 52.07 280.67 55C281.097 55.7551 281.717 56.3832 282.466 56.8202C283.216 57.2573 284.068 57.4876 284.935 57.4876C285.802 57.4876 286.654 57.2573 287.404 56.8202C288.153 56.3832 288.773 55.7551 289.2 55C290.71 52.07 290.89 44.16 290.89 36.52V27.52C290.86 20.36 290.61 13.32 289.2 10.61V10.59Z" fill="black"/>
<path d="M341.99 59.45C338.437 62.8154 333.729 64.691 328.835 64.691C323.941 64.691 319.233 62.8154 315.68 59.45C312.526 56.0859 310.832 51.6095 310.97 47V0.709991H323.59V40.03C323.38 44.13 320.18 48.74 318.27 52.94C317.922 53.7069 317.86 54.5729 318.095 55.3816C318.33 56.1903 318.846 56.8884 319.55 57.35V57.35C319.942 57.6084 320.382 57.7858 320.844 57.8719C321.306 57.958 321.781 57.951 322.24 57.8514C322.699 57.7517 323.134 57.5614 323.518 57.2916C323.903 57.0217 324.23 56.6778 324.48 56.28L326.74 52.68C327.429 51.5099 328.508 50.6194 329.788 50.1642C331.068 49.709 332.466 49.7181 333.74 50.19C335.74 50.94 337.91 51.32 338.56 49.98C339.11 48.86 338.04 47.74 336.81 46.89C335.96 46.2896 335.268 45.4918 334.794 44.5651C334.321 43.6385 334.079 42.6107 334.09 41.57V0.709991H346.75V47C346.874 51.6165 345.162 56.0939 341.99 59.45V59.45Z" fill="black"/>
<path d="M34.8 37.61C34.74 37.44 34.66 37.28 34.59 37.12C34.5607 37.0765 34.5372 37.0295 34.52 36.98L34.45 36.87C34.4239 36.8113 34.3939 36.7545 34.36 36.7C31.25 31.43 24.5 31.78 21.01 31.76C20.8879 31.7587 20.7672 31.7333 20.6549 31.6854C20.5425 31.6374 20.4407 31.5678 20.3553 31.4806C20.2699 31.3933 20.2025 31.29 20.157 31.1767C20.1114 31.0633 20.0887 30.9421 20.09 30.82C20.0925 30.5812 20.1879 30.3527 20.3558 30.1828C20.5238 30.013 20.7512 29.9152 20.99 29.91C24.19 29.86 31.06 30.12 34.17 25.79C34.3876 25.4571 34.5686 25.1017 34.71 24.73V24.73C34.71 24.68 34.71 24.62 34.76 24.57C34.911 24.1568 35.0412 23.7362 35.15 23.31C35.1466 23.2434 35.1466 23.1766 35.15 23.11L35.21 22.84C35.5452 21.222 35.7028 19.5722 35.68 17.92C35.68 10.99 34.53 7.7 31.51 4.77C28.75 2.11 24.58 0.679993 18.27 0.679993H0V63.95H18.31C24.62 63.95 28.79 62.53 31.46 59.78C34.66 56.49 35.72 52.67 35.72 45.38C35.8336 42.7962 35.5366 40.2107 34.84 37.72C34.8328 37.6814 34.8192 37.6442 34.8 37.61ZM9.8 25.08C10.9819 23.9358 11.8967 22.5449 12.4793 21.0065C13.0618 19.4681 13.2976 17.82 13.17 16.18L12.48 7.53999H16.65C21.42 7.53999 22.85 9.53999 22.96 13.72V16.61C22.96 17.51 23.96 18.95 24.96 20.16C25.3829 20.6635 25.6215 21.2961 25.6363 21.9534C25.6512 22.6108 25.4415 23.2536 25.0417 23.7756C24.642 24.2977 24.0762 24.6679 23.4378 24.825C22.7993 24.9822 22.1264 24.9169 21.53 24.64C20.2358 24.0088 18.8196 23.6676 17.38 23.64C15.4414 23.6413 13.5796 24.3982 12.19 25.75L8.96 28.91C8.75045 29.089 8.48135 29.1828 8.20594 29.1729C7.93053 29.163 7.66887 29.05 7.47274 28.8564C7.27662 28.6628 7.16031 28.4027 7.14684 28.1274C7.13337 27.8521 7.22372 27.5818 7.4 27.37L9.8 25.08ZM23.1 48.01C23.05 53.54 21.58 55.84 16.62 55.84H12.62V36.24H16.62C21.32 36.24 22.98 38.46 23.1 43.78V48.01V48.01Z" fill="black"/>
</svg>
