<svg width="73" height="45" viewBox="0 0 73 45" fill="none" xmlns="http://www.w3.org/2000/svg">
<path d="M50.793 41.996C48.1597 41.9977 45.5532 41.4692 43.1302 40.4423C40.7072 39.4154 38.5178 37.9112 36.6934 36.0201C33.9858 38.8224 30.4986 40.7546 26.6799 41.5683C22.8612 42.382 18.8854 42.0402 15.2632 40.5868C11.6411 39.1333 8.53806 36.6346 6.35283 33.4117C4.16761 30.1887 3 26.3888 3 22.5C3 18.6112 4.16761 14.8113 6.35283 11.5883C8.53806 8.36541 11.6411 5.8667 15.2632 4.41324C18.8854 2.95979 22.8612 2.61797 26.6799 3.43171C30.4986 4.24545 33.9858 6.17755 36.6934 8.97983C38.9375 6.66053 41.7236 4.93108 44.8029 3.94608C47.8822 2.96108 51.1586 2.75123 54.3392 3.33528C57.5198 3.91934 60.5055 5.27913 63.0295 7.29305C65.5534 9.30696 67.5368 11.9123 68.8025 14.876C70.0682 17.8398 70.5767 21.0698 70.2825 24.2771C69.9883 27.4844 68.9006 30.5691 67.1166 33.2555C65.3327 35.9419 62.9081 38.1463 60.0595 39.6715C57.211 41.1968 54.0272 41.9954 50.793 41.996V41.996Z" fill="white"/>
<path fill-rule="evenodd" clip-rule="evenodd" d="M42.8942 38.8651C45.3159 39.9884 47.9545 40.5721 50.6261 40.5752C53.7047 40.5734 56.7333 39.7991 59.432 38.3239C62.1308 36.8486 64.4127 34.7199 66.0671 32.1344C67.7215 29.5489 68.695 26.59 68.8976 23.5308C69.1003 20.4717 68.5256 17.411 67.2266 14.6315C65.9276 11.852 63.9463 9.44325 61.4655 7.62772C58.9848 5.81219 56.0846 4.64845 53.0329 4.24394C49.9812 3.83943 46.8763 4.20719 44.005 5.3133C41.1338 6.4194 38.5887 8.22818 36.6048 10.5725C34.1847 7.70714 30.9382 5.65217 27.3057 4.68625C23.6731 3.72033 19.8301 3.89017 16.2977 5.17279C12.7653 6.4554 9.71446 8.78873 7.55878 11.8564C5.4031 14.924 4.24689 18.5776 4.24689 22.3218C4.24689 26.0659 5.4031 29.7195 7.55878 32.7872C9.71446 35.8549 12.7653 38.1882 16.2977 39.4708C19.8301 40.7534 23.6731 40.9233 27.3057 39.9573C30.9382 38.9914 34.1847 36.9364 36.6048 34.071C38.3261 36.1056 40.4725 37.7417 42.8942 38.8651ZM43.4275 8.22741C45.6548 7.13016 48.1065 6.56014 50.5914 6.56179C53.3452 6.55745 56.0546 7.25311 58.4631 8.58294C60.8716 9.91276 62.8995 11.8327 64.3548 14.1611C65.8102 16.4895 66.6448 19.1493 66.7797 21.8887C66.9146 24.628 66.3454 27.3564 65.1258 29.8154C63.9062 32.2745 62.0767 34.3829 59.8105 35.9411C57.5442 37.4993 54.9162 38.4557 52.1751 38.7198C49.434 38.9838 46.6706 38.5469 44.1465 37.4502C41.6224 36.3536 39.421 34.6335 37.7508 32.4529C39.642 29.5377 40.648 26.1408 40.648 22.6702C40.648 19.1995 39.642 15.8026 37.7508 12.8875C39.2574 10.9195 41.2002 9.32466 43.4275 8.22741ZM60.0635 26.5749C60.0803 26.3957 60.1394 26.2229 60.2359 26.0707L62.728 22.1141C62.8467 21.9649 62.9182 21.7839 62.9333 21.5941C62.9483 21.4043 62.9063 21.2143 62.8126 21.0484C62.7189 20.8824 62.5777 20.7481 62.407 20.6623C62.2363 20.5766 62.0439 20.5434 61.8542 20.567L57.6306 21.4453C57.4689 21.4844 57.299 21.4729 57.144 21.4124C56.9891 21.3518 56.8567 21.2451 56.7649 21.1069L54.2485 17.6257C54.1248 17.4818 53.9609 17.3777 53.7778 17.3264C53.5946 17.2751 53.4003 17.2791 53.2194 17.3377C53.0385 17.3963 52.8791 17.507 52.7613 17.6558C52.6435 17.8046 52.5725 17.9848 52.5575 18.1737L51.6917 22.7669C51.6565 22.9407 51.5811 23.104 51.4715 23.2438C51.362 23.3837 51.2214 23.4963 51.0606 23.5727L47.0151 25.3858C46.8387 25.4657 46.6866 25.5906 46.5742 25.7478C46.4618 25.9051 46.3931 26.0891 46.375 26.2812C46.3569 26.4734 46.3902 26.6669 46.4713 26.8422C46.5524 27.0175 46.6786 27.1683 46.8371 27.2795L50.5185 29.2698C50.6665 29.3558 50.7887 29.4796 50.8726 29.6283C50.9566 29.7771 50.9991 29.9454 50.9959 30.1159V34.7253C50.9703 34.9228 51.0124 35.1232 51.1151 35.2941C51.2179 35.465 51.3755 35.5964 51.5625 35.6671C51.7495 35.7379 51.9549 35.7439 52.1457 35.6841C52.3365 35.6243 52.5015 35.5023 52.6141 35.3377L55.7535 31.9129C55.8663 31.7829 56.0124 31.6858 56.1762 31.6319C56.3401 31.578 56.5155 31.5693 56.6839 31.6067L60.7295 32.6382C60.9215 32.6664 61.1176 32.6428 61.2974 32.5697C61.4771 32.4967 61.6338 32.3769 61.7512 32.223C61.8686 32.069 61.9423 31.8865 61.9647 31.6944C61.9871 31.5024 61.9573 31.3079 61.8784 31.1313L60.1389 27.1022C60.0724 26.9348 60.0466 26.7541 60.0635 26.5749Z" fill="#1D1D1B"/>
<path d="M50.5913 6.56179C48.1065 6.56014 45.6548 7.13016 43.4275 8.22741C41.2002 9.32466 39.2574 10.9195 37.7508 12.8875C39.642 15.8026 40.648 19.1995 40.648 22.6702C40.648 26.1408 39.642 29.5377 37.7508 32.4529C39.421 34.6335 41.6224 36.3536 44.1465 37.4502C46.6706 38.5469 49.434 38.9838 52.1751 38.7198C54.9162 38.4557 57.5442 37.4993 59.8105 35.9411C62.0767 34.3829 63.9062 32.2745 65.1258 29.8154C66.3454 27.3564 66.9146 24.628 66.7797 21.8887C66.6448 19.1493 65.8102 16.4895 64.3548 14.1611C62.8995 11.8327 60.8716 9.91275 58.4631 8.58293C56.0546 7.25311 53.3452 6.55745 50.5913 6.56179V6.56179ZM60.2359 26.0707C60.1394 26.2229 60.0803 26.3957 60.0635 26.5749C60.0466 26.7541 60.0724 26.9348 60.1388 27.1022L61.8784 31.1313C61.9573 31.3079 61.9871 31.5024 61.9647 31.6944C61.9423 31.8865 61.8686 32.069 61.7512 32.223C61.6338 32.3769 61.4771 32.4967 61.2974 32.5697C61.1176 32.6427 60.9215 32.6664 60.7295 32.6382L56.6839 31.6067C56.5155 31.5693 56.3401 31.578 56.1762 31.6319C56.0124 31.6858 55.8663 31.7829 55.7535 31.9129L52.6141 35.3377C52.5015 35.5023 52.3365 35.6243 52.1457 35.6841C51.9549 35.7439 51.7495 35.7379 51.5625 35.6671C51.3755 35.5964 51.2179 35.465 51.1151 35.2941C51.0124 35.1232 50.9703 34.9228 50.9959 34.7252V30.1159C50.9991 29.9454 50.9566 29.777 50.8726 29.6283C50.7887 29.4796 50.6665 29.3558 50.5185 29.2698L46.8371 27.2795C46.6786 27.1683 46.5524 27.0175 46.4713 26.8422C46.3902 26.6669 46.3569 26.4734 46.375 26.2812C46.3931 26.0891 46.4618 25.9051 46.5742 25.7478C46.6866 25.5906 46.8387 25.4657 47.0151 25.3858L51.0606 23.5727C51.2214 23.4963 51.362 23.3837 51.4715 23.2438C51.5811 23.104 51.6565 22.9407 51.6917 22.7669L52.5575 18.1737C52.5725 17.9848 52.6435 17.8046 52.7613 17.6558C52.8791 17.507 53.0385 17.3963 53.2194 17.3377C53.4003 17.2791 53.5946 17.2751 53.7778 17.3264C53.9609 17.3777 54.1248 17.4818 54.2485 17.6257L56.7649 21.1069C56.8567 21.2451 56.9891 21.3518 57.144 21.4124C57.299 21.4729 57.4689 21.4844 57.6306 21.4453L61.8542 20.567C62.0439 20.5434 62.2363 20.5766 62.407 20.6623C62.5777 20.7481 62.7189 20.8824 62.8126 21.0484C62.9063 21.2143 62.9483 21.4043 62.9333 21.5941C62.9182 21.7839 62.8467 21.9649 62.728 22.1141L60.2359 26.0707Z" fill="white"/>
<path d="M22.1924 15.5097L26.0492 17.2552C26.212 17.349 26.3433 17.4897 26.4263 17.6593C26.5093 17.829 26.5403 18.0198 26.5153 18.2074C26.4902 18.3949 26.4103 18.5707 26.2858 18.712C26.1612 18.8534 25.9977 18.9539 25.8162 19.0007L21.5013 20.7625C21.3297 20.8313 21.1772 20.941 21.0569 21.0824C20.9365 21.2239 20.8519 21.3927 20.8103 21.5744L19.7737 25.8367C19.7295 26.0246 19.6372 26.1974 19.5061 26.338C19.3751 26.4785 19.2098 26.5819 19.0268 26.6378C18.8439 26.6937 18.6496 26.7001 18.4634 26.6564C18.2773 26.6127 18.1057 26.5204 17.9658 26.3888L15.3865 23.1413C15.274 23.0139 15.1295 22.9194 14.9683 22.868C14.8071 22.8166 14.6351 22.81 14.4705 22.849L9.97882 23.7421C9.80001 23.7918 9.61015 23.7823 9.43707 23.715C9.26399 23.6477 9.11679 23.5262 9.01705 23.3682C8.91731 23.2102 8.87028 23.0241 8.88286 22.8372C8.89543 22.6503 8.96694 22.4723 9.08691 22.3294L11.8109 18.6029C11.916 18.4699 11.9834 18.3106 12.0061 18.1419C12.0287 17.9732 12.0057 17.8014 11.9394 17.6449L10.1958 13.9347C9.8583 13.2202 10.6377 12.3109 11.4573 12.5139L15.724 13.3988C15.9005 13.4321 16.0823 13.4222 16.2543 13.3699C16.4262 13.3177 16.5833 13.2246 16.7123 13.0985L20.1273 9.90782C20.7942 9.2908 21.8147 9.62364 21.7986 10.4436L21.7102 14.7141C21.6999 14.8807 21.7406 15.0465 21.8269 15.1888C21.9132 15.3312 22.0408 15.4433 22.1924 15.5097Z" fill="white"/>
</svg>
