<svg width="117" height="102" viewBox="0 0 117 102" fill="none" xmlns="http://www.w3.org/2000/svg">
<path fill-rule="evenodd" clip-rule="evenodd" d="M79.3634 28.5C77.4305 31.848 73.1493 32.9952 69.8013 31.0622C66.4532 29.1292 65.3061 24.848 67.2391 21.5L31.7321 1C30.7755 0.447715 29.5523 0.775467 29 1.73205L1 50.2295C0.447716 51.1861 0.775464 52.4092 1.73205 52.9615L37.2391 73.4615C39.1721 70.1135 43.4532 68.9663 46.8013 70.8993C50.1493 72.8323 51.2964 77.1135 49.3634 80.4615L84.8705 100.962C85.8271 101.514 87.0503 101.186 87.6025 100.229L115.603 51.7321C116.155 50.7755 115.827 49.5523 114.87 49L79.3634 28.5Z" fill="#47B27A"/>
<g clip-path="url(#clip0_113_2084)">
<path d="M60.8913 72.1009C58.8253 70.904 57.0452 69.2711 55.6747 67.3159C54.3043 65.3607 53.3766 63.1303 52.9562 60.78C49.7965 61.9256 46.3609 62.0719 43.1153 61.1991C39.8696 60.3262 36.9709 58.4764 34.8121 55.9004C32.6533 53.3244 31.3388 50.1469 31.0469 46.7986C30.755 43.4503 31.4998 40.0933 33.1803 37.1826C34.8607 34.2719 37.3957 31.9484 40.4413 30.527C43.4869 29.1057 46.896 28.6553 50.2063 29.2369C53.5165 29.8185 56.5679 31.4039 58.9466 33.7783C61.3254 36.1527 62.9165 39.2012 63.5042 42.5103C66.0929 41.5732 68.876 41.3036 71.5965 41.7265C74.317 42.1494 76.8869 43.2511 79.069 44.9299C81.2511 46.6087 82.9749 48.8103 84.0811 51.3314C85.1873 53.8526 85.6402 56.6118 85.398 59.3543C85.1559 62.0967 84.2264 64.7339 82.6955 67.0222C81.1647 69.3104 79.0817 71.176 76.6393 72.4464C74.1968 73.7168 71.4735 74.3511 68.721 74.2907C65.9686 74.2304 63.2757 73.4772 60.8913 72.1009Z" fill="#1D1D1B"/>
<path d="M54.5762 32.9141C52.1104 31.4905 49.2779 30.8301 46.4368 31.0163C43.5957 31.2025 40.8736 32.227 38.6148 33.9603C36.356 35.6936 34.6618 38.0577 33.7466 40.7538C32.8314 43.4499 32.7363 46.3569 33.4732 49.107C34.2101 51.8572 35.746 54.3271 37.8866 56.2044C40.0272 58.0817 42.6765 59.282 45.4993 59.6537C48.3221 60.0253 51.1918 59.5515 53.7454 58.2922C56.2989 57.033 58.4217 55.0447 59.8453 52.579C61.7543 49.2725 62.2716 45.3432 61.2835 41.6553C60.2953 37.9674 57.8826 34.8231 54.5762 32.9141ZM46.2621 54.6224C42.6698 52.5483 41.6833 47.5294 44.0702 43.3953L57.0829 50.9082C54.7006 55.0344 49.8563 56.6975 46.2621 54.6224Z" fill="white"/>
<path d="M76.2811 45.4455C74.3668 44.3397 72.2229 43.691 70.0167 43.5499C67.8104 43.4088 65.6014 43.7793 63.5618 44.6323C63.7185 47.7295 62.9769 50.8061 61.4263 53.4918C59.8757 56.1775 57.5821 58.358 54.8215 59.771C55.1383 62.1971 56.0685 64.5025 57.5242 66.469C58.98 68.4356 60.9132 69.9985 63.1411 71.01C65.369 72.0215 67.818 72.4481 70.2567 72.2496C72.6954 72.0511 75.0432 71.234 77.0782 69.8755C79.1132 68.5171 80.7682 66.6621 81.8867 64.486C83.0052 62.3098 83.5503 59.8844 83.4705 57.4389C83.3908 54.9935 82.6887 52.6088 81.4307 50.5102C80.1727 48.4116 78.4003 46.6684 76.2811 45.4455ZM67.9552 67.1469C64.361 65.0718 63.3745 60.0528 65.7614 55.9187L78.7741 63.4316C76.3918 67.5579 71.5475 69.2209 67.9552 67.1469Z" fill="white"/>
</g>
<defs>
<clipPath id="clip0_113_2084">
<rect width="57.8275" height="32.7694" fill="white" transform="translate(41.3846 23) rotate(30)"/>
</clipPath>
</defs>
</svg>
