<svg width="89" height="50" viewBox="0 0 89 50" fill="none" xmlns="http://www.w3.org/2000/svg">
<g clip-path="url(#clip0_115_2173)">
<path d="M63.2358 50C59.5927 49.9945 55.9946 49.1949 52.6922 47.6568C49.3897 46.1188 46.4622 43.8793 44.1136 41.0943C40.8124 45.0187 36.3843 47.8331 31.4296 49.1558C26.4749 50.4785 21.2332 50.2456 16.4154 48.4887C11.5975 46.7318 7.43639 43.5358 4.49624 39.3341C1.5561 35.1324 -0.020874 30.1283 -0.020874 25C-0.020874 19.8718 1.5561 14.8676 4.49624 10.6659C7.43639 6.4642 11.5975 3.26824 16.4154 1.51133C21.2332 -0.245581 26.4749 -0.478461 31.4296 0.844265C36.3843 2.16699 40.8124 4.98134 44.1136 8.90574C46.8193 5.69245 50.2913 3.21293 54.2087 1.69629C58.1262 0.179647 62.3627 -0.325205 66.5268 0.228388C70.6909 0.781982 74.6484 2.37616 78.0335 4.86363C81.4186 7.35109 84.1221 10.6516 85.8944 14.4602C87.6666 18.2688 88.4504 22.4627 88.1732 26.6543C87.8961 30.8459 86.5669 34.9001 84.3086 38.4422C82.0503 41.9843 78.9357 44.9001 75.2526 46.9202C71.5694 48.9403 67.4366 49.9995 63.2358 50Z" fill="#1D1D1B"/>
<path d="M24.9948 3.03662C20.6505 3.03662 16.4038 4.32485 12.7916 6.73841C9.17948 9.15197 6.36416 12.5825 4.70167 16.5961C3.03918 20.6097 2.6042 25.0261 3.45173 29.2869C4.29926 33.5478 6.39123 37.4616 9.46311 40.5335C12.535 43.6053 16.4488 45.6973 20.7096 46.5448C24.9704 47.3924 29.3869 46.9574 33.4005 45.2949C37.4141 43.6324 40.8446 40.8171 43.2582 37.2049C45.6717 33.5928 46.96 29.3461 46.96 25.0018C46.96 19.1762 44.6458 13.5893 40.5265 9.47006C36.4072 5.3508 30.8203 3.03662 24.9948 3.03662ZM30.57 38.0646C24.2409 38.0646 19.1084 32.1851 19.1084 24.9015H42.035C42.035 32.1713 36.9025 38.0646 30.57 38.0646Z" fill="white"/>
<path d="M63.2358 3.03662C59.8626 3.03584 56.5348 3.81417 53.5118 5.31094C50.4889 6.80772 47.8525 8.98247 45.8082 11.6657C48.3781 15.6388 49.7453 20.2699 49.7453 25.0018C49.7453 29.7336 48.3781 34.3647 45.8082 38.3379C48.0777 41.3021 51.0657 43.6387 54.4896 45.1268C57.9135 46.6148 61.6604 47.2052 65.376 46.842C69.0916 46.4789 72.6532 45.1743 75.7242 43.0515C78.7953 40.9287 81.2743 38.0578 82.9269 34.7102C84.5796 31.3626 85.3513 27.6489 85.1691 23.92C84.9869 20.1912 83.8569 16.5703 81.8858 13.3998C79.9147 10.2292 77.1676 7.6137 73.9043 5.80037C70.6409 3.98704 66.9691 3.03582 63.2358 3.03662ZM68.7902 38.0646C62.4576 38.0646 57.3251 32.1851 57.3251 24.9015H80.2517C80.2517 32.1713 75.1193 38.0646 68.7902 38.0646Z" fill="white"/>
</g>
<defs>
<clipPath id="clip0_115_2173">
<rect width="88.2341" height="50" fill="white"/>
</clipPath>
</defs>
</svg>
