<svg width="40" height="40" viewBox="0 0 40 40" fill="none" xmlns="http://www.w3.org/2000/svg">
<path d="M28.3333 6.66675C30.9855 6.66675 33.529 7.72032 35.4044 9.59568C37.2798 11.471 38.3333 14.0146 38.3333 16.6667V23.3334C38.3333 25.9856 37.2798 28.5291 35.4044 30.4045C33.529 32.2798 30.9855 33.3334 28.3333 33.3334H11.6667C9.01449 33.3334 6.47095 32.2798 4.59559 30.4045C2.72022 28.5291 1.66666 25.9856 1.66666 23.3334V16.6667C1.66666 14.0146 2.72022 11.471 4.59559 9.59568C6.47095 7.72032 9.01449 6.66675 11.6667 6.66675H28.3333ZM28.3333 10.0001H11.6667C9.95625 10.0001 8.31128 10.6575 7.07197 11.8363C5.83266 13.0151 5.09384 14.6252 5.00832 16.3334L4.99999 16.6667V23.3334C4.99999 25.0438 5.65738 26.6888 6.8362 27.9281C8.01501 29.1674 9.62506 29.9062 11.3333 29.9917L11.6667 30.0001H28.3333C30.0437 30.0001 31.6887 29.3427 32.928 28.1639C34.1673 26.9851 34.9061 25.375 34.9917 23.6667L35 23.3334V16.6667C35 14.9563 34.3426 13.3114 33.1638 12.0721C31.985 10.8328 30.3749 10.0939 28.6667 10.0084L28.3333 10.0001ZM16.6667 15.0001V18.3334H20V21.6667H16.665L16.6667 25.0001H13.3333L13.3317 21.6667H9.99999V18.3334H13.3333V15.0001H16.6667ZM30 21.6667V25.0001H26.6667V21.6667H30ZM26.6667 15.0001V18.3334H23.3333V15.0001H26.6667Z" fill="#171614"/>
</svg>
