<svg width="191" height="61" viewBox="0 0 191 61" fill="none" xmlns="http://www.w3.org/2000/svg">
<path fill-rule="evenodd" clip-rule="evenodd" d="M2 0.739258H88.7638C88.7587 1.04761 88.7739 1.35987 88.8106 1.67458C89.2583 5.51457 92.7342 8.26456 96.5742 7.81687C100.184 7.39601 102.831 4.29908 102.763 0.739258H189C190.105 0.739258 191 1.63469 191 2.73926V58.7393C191 59.8438 190.105 60.7393 189 60.7393H102.759C102.773 60.3811 102.759 60.0172 102.716 59.65C102.269 55.81 98.7929 53.06 94.9529 53.5077C91.2911 53.9347 88.6205 57.1152 88.7687 60.7393H2C0.895434 60.7393 0 59.8438 0 58.7393V2.73926C0 1.63469 0.895431 0.739258 2 0.739258Z" fill="#47B27A"/>
</svg>
