<svg width="45" height="45" viewBox="0 0 45 45" fill="none" xmlns="http://www.w3.org/2000/svg">
<path d="M26.4769 19.6499C26.1252 19.2984 25.6484 19.1009 25.1512 19.1009C24.6541 19.1009 24.1772 19.2984 23.8256 19.6499L22.5 20.9736C22.1541 21.3318 21.7403 21.6175 21.2828 21.814C20.8252 22.0105 20.3332 22.114 19.8352 22.1183C19.3373 22.1226 18.8435 22.0278 18.3827 21.8392C17.9218 21.6507 17.5031 21.3722 17.151 21.0201C16.7989 20.668 16.5205 20.2493 16.3319 19.7885C16.1434 19.3276 16.0485 18.8338 16.0528 18.3359C16.0571 17.8379 16.1606 17.3459 16.3571 16.8884C16.5536 16.4308 16.8393 16.017 17.1975 15.6711L27.7537 5.11112C30.253 4.54267 32.8678 4.77662 35.2264 5.7797C37.5851 6.78278 39.5674 8.50393 40.8916 10.6984C42.2159 12.8929 42.8145 15.449 42.6025 18.0033C42.3904 20.5576 41.3785 22.98 39.7106 24.9261L35.7581 28.9292L26.4769 19.648V19.6499ZM5.92686 8.37737C7.86703 6.43745 10.4048 5.20858 13.1298 4.88943C15.8548 4.57028 18.6078 5.17951 20.9437 6.61862L14.5444 13.0199C13.1584 14.4031 12.3683 16.2736 12.343 18.2315C12.3177 20.1895 13.0592 22.0798 14.4089 23.4984C15.7587 24.917 17.6098 25.7514 19.5666 25.8234C21.5235 25.8954 23.4309 25.1992 24.8812 23.8836L25.1512 23.6267L33.1069 31.5805L25.1512 39.5361C24.448 40.2391 23.4944 40.6341 22.5 40.6341C21.5056 40.6341 20.552 40.2391 19.8487 39.5361L5.92499 25.6124C3.63961 23.3268 2.35571 20.227 2.35571 16.9949C2.35571 13.7627 3.63961 10.6629 5.92499 8.37737H5.92686Z" fill="#171614"/>
</svg>
