<svg width="45" height="45" viewBox="0 0 45 45" fill="none" xmlns="http://www.w3.org/2000/svg">
<path d="M1.875 41.25C1.875 37.2717 3.45535 33.4564 6.2684 30.6434C9.08144 27.8303 12.8968 26.25 16.875 26.25C20.8532 26.25 24.6686 27.8303 27.4816 30.6434C30.2946 33.4564 31.875 37.2717 31.875 41.25H1.875ZM16.875 24.375C10.6594 24.375 5.625 19.3406 5.625 13.125C5.625 6.90935 10.6594 1.87497 16.875 1.87497C23.0906 1.87497 28.125 6.90935 28.125 13.125C28.125 19.3406 23.0906 24.375 16.875 24.375ZM34.2113 5.96997C35.1477 8.23902 35.6281 10.6703 35.625 13.125C35.6281 15.5797 35.1477 18.0109 34.2113 20.28L31.0669 17.9925C31.6034 16.4258 31.8765 14.781 31.875 13.125C31.8771 11.4691 31.6047 9.82426 31.0688 8.25747L34.2113 5.96997ZM40.4025 1.46997C42.1991 5.09215 43.1311 9.0817 43.125 13.125C43.125 17.3118 42.1444 21.27 40.4025 24.78L37.3181 22.5375C38.6779 19.5861 39.3797 16.3745 39.375 13.125C39.375 9.76497 38.6381 6.5756 37.3181 3.71247L40.4025 1.46997Z" fill="#171614"/>
</svg>
