<svg width="1442" height="2" viewBox="0 0 1442 2" fill="none" xmlns="http://www.w3.org/2000/svg">
<circle cx="1" cy="1" r="1" fill="#171614"/>
<circle cx="181" cy="1" r="1" fill="#171614"/>
<circle cx="361" cy="1" r="1" fill="#171614"/>
<circle cx="541" cy="1" r="1" fill="#171614"/>
<circle cx="721" cy="1" r="1" fill="#171614"/>
<circle cx="901" cy="1" r="1" fill="#171614"/>
<circle cx="1081" cy="1" r="1" fill="#171614"/>
<circle cx="1261" cy="1" r="1" fill="#171614"/>
<circle cx="5" cy="1" r="1" fill="#171614"/>
<circle cx="185" cy="1" r="1" fill="#171614"/>
<circle cx="365" cy="1" r="1" fill="#171614"/>
<circle cx="545" cy="1" r="1" fill="#171614"/>
<circle cx="725" cy="1" r="1" fill="#171614"/>
<circle cx="905" cy="1" r="1" fill="#171614"/>
<circle cx="1085" cy="1" r="1" fill="#171614"/>
<circle cx="1265" cy="1" r="1" fill="#171614"/>
<circle cx="9" cy="1" r="1" fill="#171614"/>
<circle cx="189" cy="1" r="1" fill="#171614"/>
<circle cx="369" cy="1" r="1" fill="#171614"/>
<circle cx="549" cy="1" r="1" fill="#171614"/>
<circle cx="729" cy="1" r="1" fill="#171614"/>
<circle cx="909" cy="1" r="1" fill="#171614"/>
<circle cx="1089" cy="1" r="1" fill="#171614"/>
<circle cx="1269" cy="1" r="1" fill="#171614"/>
<circle cx="13" cy="1" r="1" fill="#171614"/>
<circle cx="193" cy="1" r="1" fill="#171614"/>
<circle cx="373" cy="1" r="1" fill="#171614"/>
<circle cx="553" cy="1" r="1" fill="#171614"/>
<circle cx="733" cy="1" r="1" fill="#171614"/>
<circle cx="913" cy="1" r="1" fill="#171614"/>
<circle cx="1093" cy="1" r="1" fill="#171614"/>
<circle cx="1273" cy="1" r="1" fill="#171614"/>
<circle cx="17" cy="1" r="1" fill="#171614"/>
<circle cx="197" cy="1" r="1" fill="#171614"/>
<circle cx="377" cy="1" r="1" fill="#171614"/>
<circle cx="557" cy="1" r="1" fill="#171614"/>
<circle cx="737" cy="1" r="1" fill="#171614"/>
<circle cx="917" cy="1" r="1" fill="#171614"/>
<circle cx="1097" cy="1" r="1" fill="#171614"/>
<circle cx="1277" cy="1" r="1" fill="#171614"/>
<circle cx="21" cy="1" r="1" fill="#171614"/>
<circle cx="201" cy="1" r="1" fill="#171614"/>
<circle cx="381" cy="1" r="1" fill="#171614"/>
<circle cx="561" cy="1" r="1" fill="#171614"/>
<circle cx="741" cy="1" r="1" fill="#171614"/>
<circle cx="921" cy="1" r="1" fill="#171614"/>
<circle cx="1101" cy="1" r="1" fill="#171614"/>
<circle cx="1281" cy="1" r="1" fill="#171614"/>
<circle cx="25" cy="1" r="1" fill="#171614"/>
<circle cx="205" cy="1" r="1" fill="#171614"/>
<circle cx="385" cy="1" r="1" fill="#171614"/>
<circle cx="565" cy="1" r="1" fill="#171614"/>
<circle cx="745" cy="1" r="1" fill="#171614"/>
<circle cx="925" cy="1" r="1" fill="#171614"/>
<circle cx="1105" cy="1" r="1" fill="#171614"/>
<circle cx="1285" cy="1" r="1" fill="#171614"/>
<circle cx="29" cy="1" r="1" fill="#171614"/>
<circle cx="209" cy="1" r="1" fill="#171614"/>
<circle cx="389" cy="1" r="1" fill="#171614"/>
<circle cx="569" cy="1" r="1" fill="#171614"/>
<circle cx="749" cy="1" r="1" fill="#171614"/>
<circle cx="929" cy="1" r="1" fill="#171614"/>
<circle cx="1109" cy="1" r="1" fill="#171614"/>
<circle cx="1289" cy="1" r="1" fill="#171614"/>
<circle cx="33" cy="1" r="1" fill="#171614"/>
<circle cx="213" cy="1" r="1" fill="#171614"/>
<circle cx="393" cy="1" r="1" fill="#171614"/>
<circle cx="573" cy="1" r="1" fill="#171614"/>
<circle cx="753" cy="1" r="1" fill="#171614"/>
<circle cx="933" cy="1" r="1" fill="#171614"/>
<circle cx="1113" cy="1" r="1" fill="#171614"/>
<circle cx="1293" cy="1" r="1" fill="#171614"/>
<circle cx="37" cy="1" r="1" fill="#171614"/>
<circle cx="217" cy="1" r="1" fill="#171614"/>
<circle cx="397" cy="1" r="1" fill="#171614"/>
<circle cx="577" cy="1" r="1" fill="#171614"/>
<circle cx="757" cy="1" r="1" fill="#171614"/>
<circle cx="937" cy="1" r="1" fill="#171614"/>
<circle cx="1117" cy="1" r="1" fill="#171614"/>
<circle cx="1297" cy="1" r="1" fill="#171614"/>
<circle cx="41" cy="1" r="1" fill="#171614"/>
<circle cx="221" cy="1" r="1" fill="#171614"/>
<circle cx="401" cy="1" r="1" fill="#171614"/>
<circle cx="581" cy="1" r="1" fill="#171614"/>
<circle cx="761" cy="1" r="1" fill="#171614"/>
<circle cx="941" cy="1" r="1" fill="#171614"/>
<circle cx="1121" cy="1" r="1" fill="#171614"/>
<circle cx="1301" cy="1" r="1" fill="#171614"/>
<circle cx="45" cy="1" r="1" fill="#171614"/>
<circle cx="225" cy="1" r="1" fill="#171614"/>
<circle cx="405" cy="1" r="1" fill="#171614"/>
<circle cx="585" cy="1" r="1" fill="#171614"/>
<circle cx="765" cy="1" r="1" fill="#171614"/>
<circle cx="945" cy="1" r="1" fill="#171614"/>
<circle cx="1125" cy="1" r="1" fill="#171614"/>
<circle cx="1305" cy="1" r="1" fill="#171614"/>
<circle cx="49" cy="1" r="1" fill="#171614"/>
<circle cx="229" cy="1" r="1" fill="#171614"/>
<circle cx="409" cy="1" r="1" fill="#171614"/>
<circle cx="589" cy="1" r="1" fill="#171614"/>
<circle cx="769" cy="1" r="1" fill="#171614"/>
<circle cx="949" cy="1" r="1" fill="#171614"/>
<circle cx="1129" cy="1" r="1" fill="#171614"/>
<circle cx="1309" cy="1" r="1" fill="#171614"/>
<circle cx="53" cy="1" r="1" fill="#171614"/>
<circle cx="233" cy="1" r="1" fill="#171614"/>
<circle cx="413" cy="1" r="1" fill="#171614"/>
<circle cx="593" cy="1" r="1" fill="#171614"/>
<circle cx="773" cy="1" r="1" fill="#171614"/>
<circle cx="953" cy="1" r="1" fill="#171614"/>
<circle cx="1133" cy="1" r="1" fill="#171614"/>
<circle cx="1313" cy="1" r="1" fill="#171614"/>
<circle cx="57" cy="1" r="1" fill="#171614"/>
<circle cx="237" cy="1" r="1" fill="#171614"/>
<circle cx="417" cy="1" r="1" fill="#171614"/>
<circle cx="597" cy="1" r="1" fill="#171614"/>
<circle cx="777" cy="1" r="1" fill="#171614"/>
<circle cx="957" cy="1" r="1" fill="#171614"/>
<circle cx="1137" cy="1" r="1" fill="#171614"/>
<circle cx="1317" cy="1" r="1" fill="#171614"/>
<circle cx="61" cy="1" r="1" fill="#171614"/>
<circle cx="241" cy="1" r="1" fill="#171614"/>
<circle cx="421" cy="1" r="1" fill="#171614"/>
<circle cx="601" cy="1" r="1" fill="#171614"/>
<circle cx="781" cy="1" r="1" fill="#171614"/>
<circle cx="961" cy="1" r="1" fill="#171614"/>
<circle cx="1141" cy="1" r="1" fill="#171614"/>
<circle cx="1321" cy="1" r="1" fill="#171614"/>
<circle cx="65" cy="1" r="1" fill="#171614"/>
<circle cx="245" cy="1" r="1" fill="#171614"/>
<circle cx="425" cy="1" r="1" fill="#171614"/>
<circle cx="605" cy="1" r="1" fill="#171614"/>
<circle cx="785" cy="1" r="1" fill="#171614"/>
<circle cx="965" cy="1" r="1" fill="#171614"/>
<circle cx="1145" cy="1" r="1" fill="#171614"/>
<circle cx="1325" cy="1" r="1" fill="#171614"/>
<circle cx="69" cy="1" r="1" fill="#171614"/>
<circle cx="249" cy="1" r="1" fill="#171614"/>
<circle cx="429" cy="1" r="1" fill="#171614"/>
<circle cx="609" cy="1" r="1" fill="#171614"/>
<circle cx="789" cy="1" r="1" fill="#171614"/>
<circle cx="969" cy="1" r="1" fill="#171614"/>
<circle cx="1149" cy="1" r="1" fill="#171614"/>
<circle cx="1329" cy="1" r="1" fill="#171614"/>
<circle cx="73" cy="1" r="1" fill="#171614"/>
<circle cx="253" cy="1" r="1" fill="#171614"/>
<circle cx="433" cy="1" r="1" fill="#171614"/>
<circle cx="613" cy="1" r="1" fill="#171614"/>
<circle cx="793" cy="1" r="1" fill="#171614"/>
<circle cx="973" cy="1" r="1" fill="#171614"/>
<circle cx="1153" cy="1" r="1" fill="#171614"/>
<circle cx="1333" cy="1" r="1" fill="#171614"/>
<circle cx="77" cy="1" r="1" fill="#171614"/>
<circle cx="257" cy="1" r="1" fill="#171614"/>
<circle cx="437" cy="1" r="1" fill="#171614"/>
<circle cx="617" cy="1" r="1" fill="#171614"/>
<circle cx="797" cy="1" r="1" fill="#171614"/>
<circle cx="977" cy="1" r="1" fill="#171614"/>
<circle cx="1157" cy="1" r="1" fill="#171614"/>
<circle cx="1337" cy="1" r="1" fill="#171614"/>
<circle cx="81" cy="1" r="1" fill="#171614"/>
<circle cx="261" cy="1" r="1" fill="#171614"/>
<circle cx="441" cy="1" r="1" fill="#171614"/>
<circle cx="621" cy="1" r="1" fill="#171614"/>
<circle cx="801" cy="1" r="1" fill="#171614"/>
<circle cx="981" cy="1" r="1" fill="#171614"/>
<circle cx="1161" cy="1" r="1" fill="#171614"/>
<circle cx="1341" cy="1" r="1" fill="#171614"/>
<circle cx="85" cy="1" r="1" fill="#171614"/>
<circle cx="265" cy="1" r="1" fill="#171614"/>
<circle cx="445" cy="1" r="1" fill="#171614"/>
<circle cx="625" cy="1" r="1" fill="#171614"/>
<circle cx="805" cy="1" r="1" fill="#171614"/>
<circle cx="985" cy="1" r="1" fill="#171614"/>
<circle cx="1165" cy="1" r="1" fill="#171614"/>
<circle cx="1345" cy="1" r="1" fill="#171614"/>
<circle cx="89" cy="1" r="1" fill="#171614"/>
<circle cx="269" cy="1" r="1" fill="#171614"/>
<circle cx="449" cy="1" r="1" fill="#171614"/>
<circle cx="629" cy="1" r="1" fill="#171614"/>
<circle cx="809" cy="1" r="1" fill="#171614"/>
<circle cx="989" cy="1" r="1" fill="#171614"/>
<circle cx="1169" cy="1" r="1" fill="#171614"/>
<circle cx="1349" cy="1" r="1" fill="#171614"/>
<circle cx="93" cy="1" r="1" fill="#171614"/>
<circle cx="273" cy="1" r="1" fill="#171614"/>
<circle cx="453" cy="1" r="1" fill="#171614"/>
<circle cx="633" cy="1" r="1" fill="#171614"/>
<circle cx="813" cy="1" r="1" fill="#171614"/>
<circle cx="993" cy="1" r="1" fill="#171614"/>
<circle cx="1173" cy="1" r="1" fill="#171614"/>
<circle cx="1353" cy="1" r="1" fill="#171614"/>
<circle cx="97" cy="1" r="1" fill="#171614"/>
<circle cx="277" cy="1" r="1" fill="#171614"/>
<circle cx="457" cy="1" r="1" fill="#171614"/>
<circle cx="637" cy="1" r="1" fill="#171614"/>
<circle cx="817" cy="1" r="1" fill="#171614"/>
<circle cx="997" cy="1" r="1" fill="#171614"/>
<circle cx="1177" cy="1" r="1" fill="#171614"/>
<circle cx="1357" cy="1" r="1" fill="#171614"/>
<circle cx="101" cy="1" r="1" fill="#171614"/>
<circle cx="281" cy="1" r="1" fill="#171614"/>
<circle cx="461" cy="1" r="1" fill="#171614"/>
<circle cx="641" cy="1" r="1" fill="#171614"/>
<circle cx="821" cy="1" r="1" fill="#171614"/>
<circle cx="1001" cy="1" r="1" fill="#171614"/>
<circle cx="1181" cy="1" r="1" fill="#171614"/>
<circle cx="1361" cy="1" r="1" fill="#171614"/>
<circle cx="105" cy="1" r="1" fill="#171614"/>
<circle cx="285" cy="1" r="1" fill="#171614"/>
<circle cx="465" cy="1" r="1" fill="#171614"/>
<circle cx="645" cy="1" r="1" fill="#171614"/>
<circle cx="825" cy="1" r="1" fill="#171614"/>
<circle cx="1005" cy="1" r="1" fill="#171614"/>
<circle cx="1185" cy="1" r="1" fill="#171614"/>
<circle cx="1365" cy="1" r="1" fill="#171614"/>
<circle cx="109" cy="1" r="1" fill="#171614"/>
<circle cx="289" cy="1" r="1" fill="#171614"/>
<circle cx="469" cy="1" r="1" fill="#171614"/>
<circle cx="649" cy="1" r="1" fill="#171614"/>
<circle cx="829" cy="1" r="1" fill="#171614"/>
<circle cx="1009" cy="1" r="1" fill="#171614"/>
<circle cx="1189" cy="1" r="1" fill="#171614"/>
<circle cx="1369" cy="1" r="1" fill="#171614"/>
<circle cx="113" cy="1" r="1" fill="#171614"/>
<circle cx="293" cy="1" r="1" fill="#171614"/>
<circle cx="473" cy="1" r="1" fill="#171614"/>
<circle cx="653" cy="1" r="1" fill="#171614"/>
<circle cx="833" cy="1" r="1" fill="#171614"/>
<circle cx="1013" cy="1" r="1" fill="#171614"/>
<circle cx="1193" cy="1" r="1" fill="#171614"/>
<circle cx="1373" cy="1" r="1" fill="#171614"/>
<circle cx="117" cy="1" r="1" fill="#171614"/>
<circle cx="297" cy="1" r="1" fill="#171614"/>
<circle cx="477" cy="1" r="1" fill="#171614"/>
<circle cx="657" cy="1" r="1" fill="#171614"/>
<circle cx="837" cy="1" r="1" fill="#171614"/>
<circle cx="1017" cy="1" r="1" fill="#171614"/>
<circle cx="1197" cy="1" r="1" fill="#171614"/>
<circle cx="1377" cy="1" r="1" fill="#171614"/>
<circle cx="121" cy="1" r="1" fill="#171614"/>
<circle cx="301" cy="1" r="1" fill="#171614"/>
<circle cx="481" cy="1" r="1" fill="#171614"/>
<circle cx="661" cy="1" r="1" fill="#171614"/>
<circle cx="841" cy="1" r="1" fill="#171614"/>
<circle cx="1021" cy="1" r="1" fill="#171614"/>
<circle cx="1201" cy="1" r="1" fill="#171614"/>
<circle cx="1381" cy="1" r="1" fill="#171614"/>
<circle cx="125" cy="1" r="1" fill="#171614"/>
<circle cx="305" cy="1" r="1" fill="#171614"/>
<circle cx="485" cy="1" r="1" fill="#171614"/>
<circle cx="665" cy="1" r="1" fill="#171614"/>
<circle cx="845" cy="1" r="1" fill="#171614"/>
<circle cx="1025" cy="1" r="1" fill="#171614"/>
<circle cx="1205" cy="1" r="1" fill="#171614"/>
<circle cx="1385" cy="1" r="1" fill="#171614"/>
<circle cx="129" cy="1" r="1" fill="#171614"/>
<circle cx="309" cy="1" r="1" fill="#171614"/>
<circle cx="489" cy="1" r="1" fill="#171614"/>
<circle cx="669" cy="1" r="1" fill="#171614"/>
<circle cx="849" cy="1" r="1" fill="#171614"/>
<circle cx="1029" cy="1" r="1" fill="#171614"/>
<circle cx="1209" cy="1" r="1" fill="#171614"/>
<circle cx="1389" cy="1" r="1" fill="#171614"/>
<circle cx="133" cy="1" r="1" fill="#171614"/>
<circle cx="313" cy="1" r="1" fill="#171614"/>
<circle cx="493" cy="1" r="1" fill="#171614"/>
<circle cx="673" cy="1" r="1" fill="#171614"/>
<circle cx="853" cy="1" r="1" fill="#171614"/>
<circle cx="1033" cy="1" r="1" fill="#171614"/>
<circle cx="1213" cy="1" r="1" fill="#171614"/>
<circle cx="1393" cy="1" r="1" fill="#171614"/>
<circle cx="137" cy="1" r="1" fill="#171614"/>
<circle cx="317" cy="1" r="1" fill="#171614"/>
<circle cx="497" cy="1" r="1" fill="#171614"/>
<circle cx="677" cy="1" r="1" fill="#171614"/>
<circle cx="857" cy="1" r="1" fill="#171614"/>
<circle cx="1037" cy="1" r="1" fill="#171614"/>
<circle cx="1217" cy="1" r="1" fill="#171614"/>
<circle cx="1397" cy="1" r="1" fill="#171614"/>
<circle cx="141" cy="1" r="1" fill="#171614"/>
<circle cx="321" cy="1" r="1" fill="#171614"/>
<circle cx="501" cy="1" r="1" fill="#171614"/>
<circle cx="681" cy="1" r="1" fill="#171614"/>
<circle cx="861" cy="1" r="1" fill="#171614"/>
<circle cx="1041" cy="1" r="1" fill="#171614"/>
<circle cx="1221" cy="1" r="1" fill="#171614"/>
<circle cx="1401" cy="1" r="1" fill="#171614"/>
<circle cx="145" cy="1" r="1" fill="#171614"/>
<circle cx="325" cy="1" r="1" fill="#171614"/>
<circle cx="505" cy="1" r="1" fill="#171614"/>
<circle cx="685" cy="1" r="1" fill="#171614"/>
<circle cx="865" cy="1" r="1" fill="#171614"/>
<circle cx="1045" cy="1" r="1" fill="#171614"/>
<circle cx="1225" cy="1" r="1" fill="#171614"/>
<circle cx="1405" cy="1" r="1" fill="#171614"/>
<circle cx="149" cy="1" r="1" fill="#171614"/>
<circle cx="329" cy="1" r="1" fill="#171614"/>
<circle cx="509" cy="1" r="1" fill="#171614"/>
<circle cx="689" cy="1" r="1" fill="#171614"/>
<circle cx="869" cy="1" r="1" fill="#171614"/>
<circle cx="1049" cy="1" r="1" fill="#171614"/>
<circle cx="1229" cy="1" r="1" fill="#171614"/>
<circle cx="1409" cy="1" r="1" fill="#171614"/>
<circle cx="153" cy="1" r="1" fill="#171614"/>
<circle cx="333" cy="1" r="1" fill="#171614"/>
<circle cx="513" cy="1" r="1" fill="#171614"/>
<circle cx="693" cy="1" r="1" fill="#171614"/>
<circle cx="873" cy="1" r="1" fill="#171614"/>
<circle cx="1053" cy="1" r="1" fill="#171614"/>
<circle cx="1233" cy="1" r="1" fill="#171614"/>
<circle cx="1413" cy="1" r="1" fill="#171614"/>
<circle cx="157" cy="1" r="1" fill="#171614"/>
<circle cx="337" cy="1" r="1" fill="#171614"/>
<circle cx="517" cy="1" r="1" fill="#171614"/>
<circle cx="697" cy="1" r="1" fill="#171614"/>
<circle cx="877" cy="1" r="1" fill="#171614"/>
<circle cx="1057" cy="1" r="1" fill="#171614"/>
<circle cx="1237" cy="1" r="1" fill="#171614"/>
<circle cx="1417" cy="1" r="1" fill="#171614"/>
<circle cx="161" cy="1" r="1" fill="#171614"/>
<circle cx="341" cy="1" r="1" fill="#171614"/>
<circle cx="521" cy="1" r="1" fill="#171614"/>
<circle cx="701" cy="1" r="1" fill="#171614"/>
<circle cx="881" cy="1" r="1" fill="#171614"/>
<circle cx="1061" cy="1" r="1" fill="#171614"/>
<circle cx="1241" cy="1" r="1" fill="#171614"/>
<circle cx="1421" cy="1" r="1" fill="#171614"/>
<circle cx="165" cy="1" r="1" fill="#171614"/>
<circle cx="345" cy="1" r="1" fill="#171614"/>
<circle cx="525" cy="1" r="1" fill="#171614"/>
<circle cx="705" cy="1" r="1" fill="#171614"/>
<circle cx="885" cy="1" r="1" fill="#171614"/>
<circle cx="1065" cy="1" r="1" fill="#171614"/>
<circle cx="1245" cy="1" r="1" fill="#171614"/>
<circle cx="1425" cy="1" r="1" fill="#171614"/>
<circle cx="169" cy="1" r="1" fill="#171614"/>
<circle cx="349" cy="1" r="1" fill="#171614"/>
<circle cx="529" cy="1" r="1" fill="#171614"/>
<circle cx="709" cy="1" r="1" fill="#171614"/>
<circle cx="889" cy="1" r="1" fill="#171614"/>
<circle cx="1069" cy="1" r="1" fill="#171614"/>
<circle cx="1249" cy="1" r="1" fill="#171614"/>
<circle cx="1429" cy="1" r="1" fill="#171614"/>
<circle cx="173" cy="1" r="1" fill="#171614"/>
<circle cx="353" cy="1" r="1" fill="#171614"/>
<circle cx="533" cy="1" r="1" fill="#171614"/>
<circle cx="713" cy="1" r="1" fill="#171614"/>
<circle cx="893" cy="1" r="1" fill="#171614"/>
<circle cx="1073" cy="1" r="1" fill="#171614"/>
<circle cx="1253" cy="1" r="1" fill="#171614"/>
<circle cx="1433" cy="1" r="1" fill="#171614"/>
<circle cx="177" cy="1" r="1" fill="#171614"/>
<circle cx="357" cy="1" r="1" fill="#171614"/>
<circle cx="537" cy="1" r="1" fill="#171614"/>
<circle cx="717" cy="1" r="1" fill="#171614"/>
<circle cx="897" cy="1" r="1" fill="#171614"/>
<circle cx="1077" cy="1" r="1" fill="#171614"/>
<circle cx="1257" cy="1" r="1" fill="#171614"/>
<circle cx="1437" cy="1" r="1" fill="#171614"/>
<circle cx="1441" cy="1" r="1" fill="#171614"/>
</svg>
