<svg width="123" height="34" viewBox="0 0 123 34" fill="none" xmlns="http://www.w3.org/2000/svg">
<g clip-path="url(#clip0_127_10340)">
<path d="M116.628 15.5985C115.987 21.8696 115.491 26.7503 115.228 30.5739H111.232C111.701 26.8076 112.191 21.9915 112.824 15.7741C113.282 11.2912 113.667 7.49271 113.965 4.27117L112.215 4.4181C110.63 13.4234 109.902 17.2863 108.366 25.9512C107.908 28.542 106.466 30.5488 103.467 30.556C102.7 30.5664 101.945 30.358 101.287 29.9539C101.668 28.9408 101.961 27.8951 102.162 26.8291C102.557 27.0641 103.011 27.1727 103.467 27.1409C104.223 27.1409 104.569 26.5855 104.723 25.7075C106.41 15.9461 107.173 11.8036 108.95 1.23597L118.339 0.429688C117.779 4.28551 117.275 9.24504 116.628 15.5985Z" fill="white"/>
<path d="M25.4748 8.07379C21.2757 8.43213 18.5567 12.6785 17.8254 20.1107C17.094 27.5428 18.8262 31.1263 23.2108 31.1048C27.5954 31.0833 30.1674 27.4926 30.9512 19.4298C31.735 11.367 29.674 7.71544 25.4748 8.07379ZM23.5397 28.238C21.8146 28.238 21.1217 26.3531 21.7341 20.0784C22.3464 13.8038 23.4557 11.539 25.1914 11.3921C26.927 11.2452 27.5954 13.3487 26.969 19.8204C26.3426 26.2922 25.3068 28.2057 23.5397 28.238Z" fill="white"/>
<path d="M39.2235 14.5636C38.4607 14.6173 38.0792 14.646 37.4739 14.7177C37.6313 13.338 37.7888 11.962 37.9603 10.6038C40.6477 10.3781 43.8111 10.1237 44.4899 10.0878C44.5529 9.46072 44.5844 9.13461 44.6509 8.46809C44.7174 7.80156 44.7489 7.47905 44.8154 6.78027L34.3 7.68689C33.9501 12.1053 33.6247 15.4057 33.2082 19.6736C32.7918 23.9415 32.4874 27.1129 32.043 30.7824H37.8868C42.0509 30.7824 44.1085 28.2274 44.7174 21.9706C45.3228 15.8321 43.5416 14.2626 39.2235 14.5636ZM37.6348 27.8798C37.3409 27.8798 36.711 27.8547 36.1686 27.826C36.592 23.4972 36.893 20.3724 37.2009 17.1938C37.5019 17.1473 37.9218 17.1222 38.4292 17.0899C40.6722 16.9538 41.4106 17.5701 40.9697 22.1319C40.5217 26.6327 39.528 27.8583 37.6348 27.8798Z" fill="white"/>
<path d="M54.351 5.96278L48.4512 6.46805C48.1257 10.6105 47.7513 14.4019 47.3104 18.9851C46.8695 23.5684 46.5545 26.7433 46.0786 30.7353H50.1553C50.2358 28.6318 50.4283 26.2632 50.6312 23.7619C51.2156 23.7619 51.597 23.7619 52.3564 23.7619C56.6535 23.658 58.7426 22.0848 59.4074 15.3192C60.0863 8.37446 58.5501 5.60085 54.351 5.96278ZM52.0694 21.2248C51.562 21.2427 51.1386 21.2606 50.8482 21.2248C51.1701 17.9244 51.513 14.3696 51.9994 9.4495C52.5523 9.36708 53.1927 9.27749 53.4901 9.2524C55.4007 9.09473 56.1496 10.4565 55.6597 15.4626C55.1488 20.5475 54.2915 21.146 52.0694 21.2248Z" fill="white"/>
<path d="M68.4881 4.37187C64.289 4.73021 61.5875 8.52511 60.6672 17.9353C59.7469 27.3455 61.479 31.0472 65.8531 31.0365C70.2272 31.0257 72.8237 27.3169 73.821 17.2652C74.8183 7.21356 72.6942 4.00993 68.4881 4.37187ZM66.2066 27.8795C64.4814 27.8795 63.8025 25.8369 64.5794 17.9282C65.3562 10.0194 66.4515 7.92668 68.1907 7.77975C69.9298 7.63283 70.6402 9.57149 69.8248 17.6666C69.0095 25.7616 67.9737 27.8795 66.2066 27.8795Z" fill="white"/>
<path d="M93.0741 2.63025C92.7591 6.1743 92.2587 11.1517 91.6744 16.8172C91.09 22.4827 90.6631 26.8509 90.2397 30.6315L100.419 30.61C100.419 30.1657 100.493 29.4454 100.545 28.9329C100.605 28.3381 100.678 27.6321 100.759 27.2451L94.4878 27.2989C94.8867 23.3571 95.0722 21.5187 95.4466 17.7848C97.6477 17.688 99.7157 17.5984 101.528 17.5913C101.651 16.3585 101.714 15.7458 101.84 14.5059C100.013 14.6815 97.9381 14.7961 95.737 14.9216C96.087 11.3381 96.2759 9.56785 96.6714 5.66903C98.498 5.51852 100.706 5.33577 102.995 5.18527C102.995 4.7875 103.072 4.01706 103.135 3.39353C103.187 2.85959 103.264 2.11422 103.345 1.73438L93.0741 2.63025Z" fill="white"/>
<path d="M16.7266 27.9906C15.7643 28.0336 14.515 28.0479 14.515 28.0479C14.641 25.5395 14.8895 22.9917 15.2149 19.5444C15.5403 16.0971 15.9148 12.5745 16.3662 9.22754L7.03007 10.0338C6.63115 13.1729 5.35041 19.0176 4.87451 21.1426C4.3986 23.2676 4.20614 24.2315 3.34182 28.1411C3.34182 28.1411 1.64116 28.1411 0.580879 28.1411C0.580879 28.1411 0.129468 32.9931 -0.0175018 34.0073C0.902543 33.9069 1.83039 33.9069 2.75044 34.0073C2.80992 32.9609 3.06187 30.904 3.06887 30.861C6.07476 30.8431 10.6588 30.8323 13.6647 30.8359C13.6647 30.8789 13.5003 32.9645 13.3498 34.0073C14.2698 33.9069 15.1977 33.9069 16.1177 34.0073C16.1912 32.986 16.7266 27.9906 16.7266 27.9906ZM10.5224 28.0802L7.02307 28.1124C7.68443 24.468 8.14284 23.0956 8.63624 20.967C9.01067 19.358 9.76301 16.201 10.3859 12.897L12.111 12.7537C11.9011 15.1224 11.6736 17.4122 11.4427 19.7522C11.1032 23.1422 10.8548 25.6219 10.5259 28.0802H10.5224Z" fill="white"/>
<path d="M88.9624 27.3458C87.9966 27.396 86.7474 27.4067 86.7474 27.4067C86.9328 24.307 87.3143 20.5121 87.7972 15.5419C88.3011 10.5071 88.721 6.34667 89.1969 2.96387L79.8013 3.77015C79.3989 6.94511 77.9537 14.4704 77.3763 17.6525C76.8094 20.7666 76.519 22.6694 75.5706 27.5071C75.5706 27.5071 73.8665 27.5071 72.8027 27.5071C72.8027 27.5071 72.2988 33.0041 72.1553 34.0183C73.0754 33.9179 74.0032 33.9179 74.9233 34.0183C74.9793 32.9755 75.2452 30.7501 75.2522 30.7035C78.2616 30.6856 82.8492 30.6749 85.855 30.682C85.855 30.7286 85.6731 32.9755 85.5051 34.0183C86.4252 33.9179 87.353 33.9179 88.2731 34.0183C88.35 32.9862 88.9624 27.3458 88.9624 27.3458ZM82.7477 27.4426L79.2484 27.4748C79.9972 22.9597 80.5501 20.6376 81.1485 17.4698C81.5964 15.0868 82.4887 10.568 83.1466 6.84835L84.8962 6.70143C84.6583 9.37112 84.3609 12.3597 84.0214 15.7497C83.5105 20.6734 83.1361 24.4074 82.7477 27.4426Z" fill="white"/>
<path d="M122.997 2.75252C123 3.09564 122.975 3.43843 122.923 3.77739C122.879 4.04717 122.804 4.31062 122.699 4.56217C122.609 4.76925 122.481 4.95662 122.321 5.11403C122.166 5.25897 121.982 5.36777 121.782 5.43295C121.326 5.57237 120.839 5.57237 120.383 5.43295C120.183 5.36777 119.999 5.25897 119.844 5.11403C119.684 4.95738 119.557 4.76977 119.469 4.56217C119.363 4.31079 119.287 4.04733 119.242 3.77739C119.139 3.09818 119.139 2.40685 119.242 1.72765C119.284 1.4601 119.362 1.19971 119.473 0.953614C119.564 0.753511 119.691 0.572484 119.847 0.419674C120.001 0.273295 120.185 0.16429 120.386 0.100745C120.613 0.0307314 120.849 -0.00311002 121.086 0.000408389C121.323 -0.00416506 121.559 0.0296991 121.786 0.100745C121.987 0.165869 122.172 0.274653 122.328 0.419674C122.487 0.571087 122.615 0.752385 122.706 0.953614C122.813 1.20069 122.888 1.46085 122.93 1.72765C122.98 2.06682 123.002 2.4096 122.997 2.75252ZM119.595 2.75252C119.587 3.11318 119.618 3.47364 119.686 3.82756C119.731 4.08218 119.824 4.3255 119.959 4.54426C120.072 4.72501 120.234 4.86821 120.425 4.95635C120.632 5.04906 120.856 5.0943 121.082 5.08894C121.307 5.09507 121.531 5.04978 121.737 4.95635C121.925 4.86432 122.086 4.72196 122.202 4.54426C122.337 4.3255 122.43 4.08218 122.475 3.82756C122.592 3.12667 122.592 2.41062 122.475 1.70973C122.431 1.45469 122.339 1.21108 122.202 0.993032C122.086 0.818446 121.925 0.679699 121.737 0.591685C121.315 0.429152 120.85 0.429152 120.428 0.591685C120.236 0.680898 120.072 0.823713 119.956 1.00378C119.819 1.22183 119.726 1.46544 119.683 1.72048C119.622 2.0632 119.596 2.41148 119.606 2.75968L119.595 2.75252ZM122.101 3.33663C122.103 3.52316 122.085 3.70937 122.048 3.89206C122.017 4.03811 121.959 4.17674 121.877 4.30058C121.798 4.41208 121.69 4.49891 121.565 4.55142C121.412 4.61293 121.247 4.64218 121.082 4.63743C120.923 4.64034 120.765 4.60601 120.62 4.53708C120.477 4.46594 120.356 4.35555 120.271 4.21816C120.165 4.03989 120.092 3.84303 120.057 3.63764C120.007 3.34549 119.983 3.04915 119.987 2.75252C119.983 2.45927 120.007 2.16631 120.061 1.87815C120.099 1.67464 120.171 1.47944 120.274 1.30121C120.359 1.16332 120.48 1.05278 120.624 0.982282C120.77 0.911041 120.931 0.875469 121.093 0.878358C121.237 0.87501 121.38 0.89807 121.516 0.946445C121.635 0.991589 121.742 1.06532 121.828 1.16146C121.919 1.26391 121.986 1.38653 122.024 1.5198C122.068 1.69765 122.09 1.88086 122.087 2.06449C122.087 2.10391 122.087 2.13616 122.087 2.16841C122.085 2.20064 122.085 2.23293 122.087 2.26516C122.087 2.29741 122.087 2.33325 122.087 2.36908H121.604C121.604 2.31175 121.604 2.25799 121.604 2.20782C121.604 2.15766 121.604 2.10749 121.604 2.06449C121.606 1.95725 121.596 1.85011 121.572 1.74556C121.552 1.67472 121.52 1.60801 121.478 1.54847C121.437 1.49587 121.382 1.45613 121.32 1.4338C121.248 1.41006 121.172 1.39798 121.096 1.39797C121.008 1.39639 120.921 1.41863 120.844 1.46247C120.764 1.50937 120.699 1.58071 120.659 1.66673C120.602 1.794 120.564 1.92929 120.547 2.06807C120.519 2.29025 120.506 2.51417 120.509 2.73818C120.506 2.96338 120.519 3.18848 120.547 3.41188C120.564 3.55543 120.601 3.69558 120.659 3.82756C120.696 3.91492 120.76 3.98773 120.841 4.0354C120.918 4.07497 121.003 4.09465 121.089 4.09273C121.169 4.09338 121.248 4.08005 121.324 4.05332C121.389 4.02672 121.445 3.98051 121.485 3.92074C121.528 3.85137 121.558 3.775 121.576 3.69497C121.601 3.58712 121.613 3.47628 121.611 3.36529V3.24345C121.611 3.20045 121.611 3.15745 121.611 3.11803H122.097C122.097 3.15386 122.097 3.1897 122.097 3.21837C122.101 3.26005 122.102 3.30195 122.101 3.34379V3.33663Z" fill="white"/>
</g>
<defs>
<clipPath id="clip0_127_10340">
<rect width="123" height="34" fill="white"/>
</clipPath>
</defs>
</svg>
