<svg width="123" height="34" viewBox="0 0 123 34" fill="none" xmlns="http://www.w3.org/2000/svg">
<g clip-path="url(#clip0_110_1878)">
<path d="M116.628 15.5989C115.987 21.8699 115.491 26.7506 115.228 30.5742H111.232C111.701 26.808 112.191 21.9918 112.824 15.7745C113.282 11.2915 113.667 7.49304 113.965 4.2715L112.215 4.41842C110.63 13.4237 109.902 17.2867 108.366 25.9515C107.908 28.5424 106.466 30.5491 103.467 30.5563C102.7 30.5667 101.945 30.3583 101.287 29.9543C101.668 28.9411 101.961 27.8955 102.162 26.8295C102.557 27.0645 103.011 27.173 103.467 27.1412C104.223 27.1412 104.569 26.5858 104.723 25.7078C106.41 15.9465 107.173 11.804 108.95 1.2363L118.339 0.430016C117.779 4.28583 117.275 9.24537 116.628 15.5989Z" fill="#171614"/>
<path d="M25.4748 8.07357C21.2757 8.43192 18.5567 12.6783 17.8254 20.1105C17.094 27.5426 18.8262 31.1261 23.2108 31.1046C27.5954 31.0831 30.1674 27.4924 30.9512 19.4296C31.735 11.3668 29.674 7.71522 25.4748 8.07357ZM23.5397 28.2378C21.8146 28.2378 21.1217 26.3529 21.7341 20.0782C22.3464 13.8035 23.4557 11.5388 25.1914 11.3919C26.927 11.2449 27.5954 13.3484 26.969 19.8202C26.3426 26.292 25.3068 28.2055 23.5397 28.2378Z" fill="#171614"/>
<path d="M39.2235 14.5632C38.4607 14.617 38.0792 14.6457 37.4739 14.7173C37.6313 13.3377 37.7888 11.9616 37.9603 10.6035C40.6477 10.3777 43.8111 10.1233 44.4899 10.0875C44.5529 9.46037 44.5844 9.13427 44.6509 8.46774C44.7174 7.80122 44.7489 7.47871 44.8154 6.77993L34.3 7.68655C33.9501 12.105 33.6247 15.4054 33.2082 19.6733C32.7918 23.9412 32.4874 27.1126 32.043 30.782H37.8868C42.0509 30.782 44.1085 28.227 44.7174 21.9703C45.3228 15.8318 43.5416 14.2622 39.2235 14.5632ZM37.6348 27.8794C37.3409 27.8794 36.711 27.8543 36.1686 27.8257C36.592 23.4968 36.893 20.372 37.2009 17.1935C37.5019 17.1469 37.9218 17.1218 38.4292 17.0896C40.6722 16.9534 41.4106 17.5698 40.9697 22.1315C40.5217 26.6324 39.528 27.8579 37.6348 27.8794Z" fill="#171614"/>
<path d="M54.351 5.9629L48.4512 6.46817C48.1257 10.6107 47.7513 14.402 47.3104 18.9852C46.8695 23.5685 46.5545 26.7435 46.0786 30.7355H50.1553C50.2358 28.632 50.4283 26.2633 50.6312 23.762C51.2156 23.762 51.597 23.762 52.3564 23.762C56.6535 23.6581 58.7426 22.085 59.4074 15.3194C60.0863 8.37459 58.5501 5.60097 54.351 5.9629ZM52.0694 21.2249C51.562 21.2428 51.1386 21.2608 50.8482 21.2249C51.1701 17.9245 51.513 14.3697 51.9994 9.44963C52.5523 9.36721 53.1927 9.27761 53.4901 9.25253C55.4007 9.09486 56.1496 10.4566 55.6597 15.4627C55.1488 20.5476 54.2915 21.1461 52.0694 21.2249Z" fill="#171614"/>
<path d="M68.4881 4.37183C64.289 4.73018 61.5875 8.52508 60.6672 17.9353C59.7469 27.3455 61.479 31.0472 65.8531 31.0365C70.2272 31.0257 72.8237 27.3168 73.821 17.2652C74.8183 7.21353 72.6942 4.0099 68.4881 4.37183ZM66.2066 27.8794C64.4814 27.8794 63.8025 25.8368 64.5794 17.9281C65.3562 10.0194 66.4515 7.92664 68.1907 7.77972C69.9298 7.6328 70.6402 9.57145 69.8248 17.6665C69.0095 25.7616 67.9737 27.8794 66.2066 27.8794Z" fill="#171614"/>
<path d="M93.0741 2.63027C92.7591 6.17433 92.2587 11.1518 91.6744 16.8172C91.09 22.4827 90.6631 26.851 90.2397 30.6315L100.419 30.61C100.419 30.1657 100.493 29.4454 100.545 28.933C100.605 28.3381 100.678 27.6322 100.759 27.2452L94.4878 27.2989C94.8867 23.3571 95.0722 21.5188 95.4466 17.7848C97.6477 17.688 99.7157 17.5984 101.528 17.5913C101.651 16.3586 101.714 15.7458 101.84 14.5059C100.013 14.6815 97.9381 14.7962 95.737 14.9216C96.087 11.3381 96.2759 9.56787 96.6714 5.66905C98.498 5.51854 100.706 5.3358 102.995 5.18529C102.995 4.78752 103.072 4.01708 103.135 3.39355C103.187 2.85962 103.264 2.11425 103.345 1.7344L93.0741 2.63027Z" fill="#171614"/>
<path d="M16.7266 27.9905C15.7643 28.0335 14.515 28.0478 14.515 28.0478C14.641 25.5394 14.8895 22.9916 15.2149 19.5443C15.5403 16.097 15.9148 12.5744 16.3662 9.22745L7.03007 10.0337C6.63115 13.1729 5.35041 19.0175 4.87451 21.1425C4.3986 23.2675 4.20614 24.2315 3.34182 28.141C3.34182 28.141 1.64116 28.141 0.580879 28.141C0.580879 28.141 0.129468 32.993 -0.0175018 34.0072C0.902543 33.9068 1.83039 33.9068 2.75044 34.0072C2.80992 32.9608 3.06187 30.9039 3.06887 30.8609C6.07476 30.843 10.6588 30.8322 13.6647 30.8358C13.6647 30.8788 13.5003 32.9644 13.3498 34.0072C14.2698 33.9068 15.1977 33.9068 16.1177 34.0072C16.1912 32.9859 16.7266 27.9905 16.7266 27.9905ZM10.5224 28.0801L7.02307 28.1123C7.68443 24.468 8.14284 23.0955 8.63624 20.9669C9.01067 19.3579 9.76301 16.2009 10.3859 12.8969L12.111 12.7536C11.9011 15.1223 11.6736 17.4121 11.4427 19.7521C11.1032 23.1421 10.8548 25.6218 10.5259 28.0801H10.5224Z" fill="#171614"/>
<path d="M88.9624 27.3455C87.9966 27.3957 86.7474 27.4064 86.7474 27.4064C86.9328 24.3067 87.3143 20.5118 87.7972 15.5415C88.3011 10.5068 88.721 6.34633 89.1969 2.96354L79.8013 3.76982C79.3989 6.94477 77.9537 14.4701 77.3763 17.6522C76.8094 20.7662 76.519 22.6691 75.5706 27.5067C75.5706 27.5067 73.8665 27.5067 72.8027 27.5067C72.8027 27.5067 72.2988 33.0038 72.1553 34.0179C73.0754 33.9176 74.0032 33.9176 74.9233 34.0179C74.9793 32.9751 75.2452 30.7498 75.2522 30.7032C78.2616 30.6853 82.8492 30.6745 85.855 30.6817C85.855 30.7283 85.6731 32.9751 85.5051 34.0179C86.4252 33.9176 87.353 33.9176 88.2731 34.0179C88.35 32.9859 88.9624 27.3455 88.9624 27.3455ZM82.7477 27.4422L79.2484 27.4745C79.9972 22.9593 80.5501 20.6372 81.1485 17.4694C81.5964 15.0864 82.4887 10.5677 83.1466 6.84802L84.8962 6.7011C84.6583 9.37078 84.3609 12.3594 84.0214 15.7494C83.5105 20.6731 83.1361 24.407 82.7477 27.4422Z" fill="#171614"/>
<path d="M122.997 2.75211C123 3.09522 122.975 3.43802 122.923 3.77698C122.879 4.04676 122.804 4.31021 122.699 4.56176C122.609 4.76884 122.481 4.95621 122.321 5.11362C122.166 5.25856 121.982 5.36736 121.782 5.43254C121.326 5.57196 120.839 5.57196 120.383 5.43254C120.183 5.36736 119.999 5.25856 119.844 5.11362C119.684 4.95697 119.557 4.76936 119.469 4.56176C119.363 4.31038 119.287 4.04692 119.242 3.77698C119.139 3.09777 119.139 2.40644 119.242 1.72723C119.284 1.45969 119.362 1.19929 119.473 0.953202C119.564 0.753099 119.691 0.572072 119.847 0.419262C120.001 0.272883 120.185 0.163878 120.386 0.100333C120.613 0.0303194 120.849 -0.00352201 121.086 -3.59799e-06C121.323 -0.00457705 121.559 0.0292872 121.786 0.100333C121.987 0.165457 122.172 0.274241 122.328 0.419262C122.487 0.570675 122.615 0.751973 122.706 0.953202C122.813 1.20028 122.888 1.46044 122.93 1.72723C122.98 2.06641 123.002 2.40919 122.997 2.75211ZM119.595 2.75211C119.587 3.11277 119.618 3.47323 119.686 3.82715C119.731 4.08176 119.824 4.32508 119.959 4.54384C120.072 4.7246 120.234 4.8678 120.425 4.95594C120.632 5.04864 120.856 5.09389 121.082 5.08853C121.307 5.09466 121.531 5.04937 121.737 4.95594C121.925 4.8639 122.086 4.72155 122.202 4.54384C122.337 4.32508 122.43 4.08176 122.475 3.82715C122.592 3.12626 122.592 2.41021 122.475 1.70931C122.431 1.45427 122.339 1.21067 122.202 0.99262C122.086 0.818034 121.925 0.679287 121.737 0.591273C121.315 0.42874 120.85 0.42874 120.428 0.591273C120.236 0.680486 120.072 0.823301 119.956 1.00337C119.819 1.22142 119.726 1.46502 119.683 1.72006C119.622 2.06279 119.596 2.41107 119.606 2.75927L119.595 2.75211ZM122.101 3.33622C122.103 3.52275 122.085 3.70896 122.048 3.89165C122.017 4.0377 121.959 4.17633 121.877 4.30017C121.798 4.41167 121.69 4.49849 121.565 4.55101C121.412 4.61251 121.247 4.64177 121.082 4.63702C120.923 4.63993 120.765 4.6056 120.62 4.53667C120.477 4.46553 120.356 4.35514 120.271 4.21775C120.165 4.03948 120.092 3.84262 120.057 3.63723C120.007 3.34508 119.983 3.04874 119.987 2.75211C119.983 2.45886 120.007 2.1659 120.061 1.87774C120.099 1.67423 120.171 1.47903 120.274 1.3008C120.359 1.16291 120.48 1.05237 120.624 0.98187C120.77 0.910629 120.931 0.875057 121.093 0.877946C121.237 0.874598 121.38 0.897658 121.516 0.946033C121.635 0.991177 121.742 1.06491 121.828 1.16104C121.919 1.26349 121.986 1.38611 122.024 1.51939C122.068 1.69724 122.09 1.88045 122.087 2.06408C122.087 2.1035 122.087 2.13575 122.087 2.168C122.085 2.20023 122.085 2.23252 122.087 2.26475C122.087 2.297 122.087 2.33284 122.087 2.36867H121.604C121.604 2.31134 121.604 2.25758 121.604 2.20741C121.604 2.15724 121.604 2.10708 121.604 2.06408C121.606 1.95684 121.596 1.8497 121.572 1.74515C121.552 1.6743 121.52 1.60759 121.478 1.54806C121.437 1.49546 121.382 1.45572 121.32 1.43339C121.248 1.40965 121.172 1.39757 121.096 1.39755C121.008 1.39597 120.921 1.41822 120.844 1.46205C120.764 1.50896 120.699 1.5803 120.659 1.66632C120.602 1.79358 120.564 1.92888 120.547 2.06766C120.519 2.28984 120.506 2.51375 120.509 2.73777C120.506 2.96297 120.519 3.18806 120.547 3.41146C120.564 3.55502 120.601 3.69516 120.659 3.82715C120.696 3.91451 120.76 3.98732 120.841 4.03499C120.918 4.07456 121.003 4.09424 121.089 4.09232C121.169 4.09296 121.248 4.07964 121.324 4.05291C121.389 4.02631 121.445 3.9801 121.485 3.92032C121.528 3.85096 121.558 3.77459 121.576 3.69456C121.601 3.5867 121.613 3.47586 121.611 3.36488V3.24304C121.611 3.20004 121.611 3.15704 121.611 3.11762H122.097C122.097 3.15345 122.097 3.18929 122.097 3.21795C122.101 3.25964 122.102 3.30154 122.101 3.34338V3.33622Z" fill="#171614"/>
</g>
<defs>
<clipPath id="clip0_110_1878">
<rect width="123" height="34" fill="white"/>
</clipPath>
</defs>
</svg>
