<svg width="191" height="60" viewBox="0 0 191 60" fill="none" xmlns="http://www.w3.org/2000/svg">
<path fill-rule="evenodd" clip-rule="evenodd" d="M2 0H88.7638C88.7587 0.308352 88.7739 0.620617 88.8106 0.935327C89.2583 4.77531 92.7342 7.5253 96.5742 7.07761C100.184 6.65675 102.831 3.55982 102.763 0H189C190.105 0 191 0.895431 191 2V58C191 59.1046 190.105 60 189 60H102.759C102.773 59.6418 102.759 59.2779 102.716 58.9108C102.269 55.0708 98.7929 52.3208 94.9529 52.7685C91.2911 53.1954 88.6205 56.3759 88.7687 60H2C0.895434 60 0 59.1046 0 58V2C0 0.895432 0.895431 0 2 0Z" fill="#F5B3BD"/>
</svg>
