<svg width="59" height="43" viewBox="0 0 59 43" fill="none" xmlns="http://www.w3.org/2000/svg">
<path d="M54.5934 14.6182C55.5984 18.3687 53.8436 22.5819 49.9738 26.3863C46.1164 30.1785 40.2329 33.4776 33.2322 35.3534C26.2315 37.2292 19.4867 37.3139 14.25 35.9584C8.99648 34.5987 5.37021 31.8273 4.36525 28.0768C3.36029 24.3262 5.11505 20.113 8.98482 16.3087C12.8422 12.5165 18.7257 9.21737 25.7264 7.34154C32.7271 5.46571 39.4719 5.38106 44.7087 6.73649C49.9622 8.09626 53.5884 10.8676 54.5934 14.6182Z" stroke="#47B27A"/>
<path d="M21.576 22.656H23.944V24.288H21.576V26.944H19.88V24.288H17.48V22.656H19.88V20H21.576V22.656Z" fill="#171614"/>
</svg>
