<svg width="252" height="238" viewBox="0 0 252 238" fill="none" xmlns="http://www.w3.org/2000/svg">
<path fill-rule="evenodd" clip-rule="evenodd" d="M5.93185 48.9169L89.9674 26.3997C90.9757 30.1227 94.8076 32.3298 98.5357 31.3309C102.264 30.332 104.479 26.5046 103.49 22.7762L186.56 0.517771C187.627 0.231888 188.724 0.865053 189.009 1.93198L203.503 56.0238C203.789 57.0908 203.156 58.1874 202.089 58.4733L119.019 80.7318C119.018 80.7256 119.016 80.7194 119.015 80.7132C118.014 76.979 114.176 74.7629 110.441 75.7635C106.707 76.7641 104.491 80.6024 105.492 84.3367C105.493 84.3429 105.495 84.3491 105.497 84.3552L21.461 106.872C20.3941 107.158 19.2974 106.525 19.0115 105.458L4.51764 51.3664C4.23175 50.2995 4.86492 49.2028 5.93185 48.9169Z" fill="#47B27A"/>
<path d="M54.1849 74.4338C56.7968 73.7339 57.8277 71.3375 57.6895 68.6579C57.5294 65.8352 55.7727 64.5335 53.5781 65.1215C50.9662 65.8214 49.8271 68.2468 49.9808 70.9222C50.1254 73.7491 51.9904 75.0218 54.1849 74.4338ZM53.9422 73.1571C52.5977 73.5174 51.497 72.6859 51.382 70.464C51.2684 68.5564 51.9816 66.891 53.7126 66.4272C55.0572 66.0669 56.1579 66.8984 56.2883 69.1162C56.3865 71.0279 55.6732 72.6933 53.9422 73.1571Z" fill="#171614"/>
<path d="M66.6125 61.629C65.9943 61.7946 65.6381 62.0723 64.4438 64.9101L64.406 64.2742C64.3457 62.9983 63.9079 62.3537 63.0888 62.5731C62.4552 62.7429 62.0876 63.0402 60.7855 66.1554L60.6927 66.1802L60.6152 63.4181L59.5179 63.7122L59.9873 72.6968L61.2237 72.3655L60.9937 67.9216C62.6496 64.1485 62.8091 63.9401 62.9327 63.907C63.0409 63.878 63.1234 63.9387 63.156 64.4932L63.5265 71.7485L64.7629 71.4172L64.5359 66.9228C66.1887 63.2002 66.3328 62.996 66.4564 62.9628C66.5646 62.9338 66.6626 62.9904 66.6797 63.549L66.9884 70.8209L68.2248 70.4896L67.9297 63.33C67.8848 62.05 67.4316 61.4095 66.6125 61.629Z" fill="#171614"/>
<path d="M83.8763 66.478C85.0354 66.1674 86.2044 65.5229 88.1689 63.0253L87.2311 62.1834C85.3529 64.5087 84.4218 64.9901 83.6954 65.1848C82.459 65.516 81.8115 64.3975 81.7382 62.5785C81.624 60.1742 82.759 58.6608 84.3045 58.2467C85.2936 57.9817 86.1318 58.2043 86.9895 58.4383L87.3187 57.0084C86.4062 56.7559 85.3291 56.6305 84.1545 56.9452C81.6354 57.6202 80.1458 59.9739 80.2915 62.8668C80.435 65.6277 81.929 66.9998 83.8763 66.478Z" fill="#171614"/>
<path d="M96.7675 53.549C96.1493 53.7146 95.793 53.9923 94.5988 56.8301L94.561 56.1942C94.5007 54.9183 94.0629 54.2737 93.2438 54.4931C92.6102 54.6629 92.2426 54.9602 90.9405 58.0753L90.8477 58.1002L90.7702 55.3381L89.6729 55.6322L90.1423 64.6168L91.3787 64.2855L91.1487 59.8416C92.8046 56.0685 92.9641 55.8601 93.0877 55.827C93.1959 55.798 93.2784 55.8587 93.311 56.4132L93.6815 63.6685L94.9179 63.3372L94.6909 58.8428C96.3437 55.1202 96.4878 54.9159 96.6114 54.8828C96.7196 54.8538 96.8176 54.9104 96.8347 55.469L97.1434 62.7409L98.3797 62.4096L98.0847 55.25C98.0398 53.97 97.5866 53.3295 96.7675 53.549Z" fill="#171614"/>
<path d="M107.281 51.7755L107.206 50.3213L105.815 50.694L105.859 51.6597C104.767 51.6043 103.836 51.6549 103.218 51.8205C101.92 52.1684 100.234 54.8398 100.437 58.6282C100.565 60.8965 101.244 61.8243 102.295 61.5427C102.96 61.3647 103.366 61.09 106.236 57.0248L106.329 56.9999L106.438 60.2505L107.69 59.915L107.281 51.7755ZM101.855 58.2318C101.723 55.6996 102.729 53.2104 103.672 52.9578C104.213 52.8129 105.133 52.8478 105.93 52.9159L106.055 55.4831C102.865 59.8992 102.593 60.1211 102.361 60.1832C102.145 60.2412 101.929 59.62 101.855 58.2318Z" fill="#171614"/>
<path d="M115.804 48.448C115.14 48.6261 114.733 48.9007 111.864 52.966L111.771 52.9908L111.754 49.2187L111.664 47.5862L110.273 47.9589L111.007 62.0079L112.397 61.6352L112.241 58.3311C113.332 58.3865 114.263 58.3359 114.881 58.1702C116.179 57.8224 117.866 55.151 117.662 51.3626C117.535 49.0942 116.855 48.1664 115.804 48.448ZM116.244 51.759C116.376 54.2911 115.37 56.7803 114.427 57.0329C113.887 57.1779 112.966 57.1429 112.169 57.0748L112.045 54.5076C115.234 50.0916 115.506 49.8697 115.738 49.8075C115.954 49.7496 116.171 50.3708 116.244 51.759Z" fill="#171614"/>
<path d="M126.923 45.469C126.304 45.6346 125.948 45.9123 124.754 48.7501L124.716 48.1142C124.656 46.8383 124.218 46.1937 123.399 46.4131C122.765 46.5829 122.398 46.8802 121.095 49.9953L121.003 50.0202L120.925 47.2581L119.828 47.5522L120.297 56.5368L121.534 56.2055L121.304 51.7616C122.96 47.9885 123.119 47.7801 123.243 47.747C123.351 47.718 123.433 47.7787 123.466 48.3332L123.836 55.5885L125.073 55.2572L124.846 50.7628C126.499 47.0402 126.643 46.8359 126.766 46.8028C126.875 46.7738 126.973 46.8304 126.99 47.389L127.298 54.6609L128.535 54.3296L128.24 47.17C128.195 45.89 127.742 45.2495 126.923 45.469Z" fill="#171614"/>
<path d="M137.436 43.6954L137.361 42.2413L135.97 42.614L136.014 43.5797C134.922 43.5243 133.991 43.5749 133.373 43.7405C132.075 44.0884 130.389 46.7598 130.592 50.5482C130.72 52.8165 131.399 53.7443 132.45 53.4627C133.115 53.2846 133.521 53.01 136.391 48.9448L136.484 48.9199L136.593 52.1705L137.845 51.835L137.436 43.6954ZM132.01 50.1518C131.878 47.6196 132.884 45.1304 133.827 44.8778C134.368 44.7329 135.288 44.7678 136.085 44.8359L136.21 47.4031C133.02 51.8192 132.748 52.0411 132.516 52.1032C132.3 52.1612 132.084 51.54 132.01 50.1518Z" fill="#171614"/>
<path d="M146.099 40.3308C145.372 40.5254 144.996 40.7917 142.127 44.857L142.034 44.8818L141.925 41.6313L140.673 41.9667L141.142 50.9514L142.533 50.5787L142.323 46.3945C145.498 41.9826 145.769 41.7607 145.955 41.711C146.063 41.682 146.146 41.7427 146.166 42.2508L146.474 49.5227L147.865 49.15L147.57 41.9904C147.525 40.7104 146.964 40.0989 146.099 40.3308Z" fill="#171614"/>
<path d="M157.539 38.3088L157.464 36.8546L156.073 37.2273L156.117 38.193C155.025 38.1376 154.095 38.1882 153.477 38.3538C152.178 38.7017 150.492 41.3731 150.696 45.1615C150.823 47.4298 151.502 48.3576 152.553 48.076C153.218 47.898 153.625 47.6233 156.494 43.5581L156.587 43.5333L156.696 46.7838L157.948 46.4484L157.539 38.3088ZM152.113 44.7651C151.982 42.2329 152.988 39.7437 153.93 39.4911C154.471 39.3462 155.392 39.3812 156.188 39.4493L156.313 42.0165C153.123 46.4325 152.852 46.6544 152.62 46.7165C152.403 46.7745 152.187 46.1533 152.113 44.7651Z" fill="#171614"/>
<path d="M2.41968 92.2728L3.13207 83.6419L10.2505 88.5743L2.41968 92.2728ZM18.3958 82.3827C17.3576 81.5371 16.4336 81.0582 15.5806 80.8707C14.7422 80.6863 13.9227 80.7722 13.0592 81.1421C11.2724 81.9076 9.32001 83.8746 6.86604 87.172L5.66272 86.2764C8.11465 82.9818 10.2744 80.7034 12.4684 79.7633C13.5953 79.2805 14.7334 79.1486 15.9027 79.4057C17.0572 79.6595 18.1908 80.2812 19.343 81.2196L18.3958 82.3827Z" fill="#47B27A"/>
<path fill-rule="evenodd" clip-rule="evenodd" d="M65.4609 130.518L149.496 153.035C148.508 156.763 150.723 160.591 154.451 161.59C158.179 162.589 162.011 160.381 163.019 156.658L246.089 178.917C247.156 179.203 247.789 180.299 247.503 181.366L233.009 235.458C232.723 236.525 231.627 237.158 230.56 236.872L147.49 214.614C147.492 214.608 147.494 214.602 147.495 214.595C148.496 210.861 146.28 207.023 142.545 206.022C138.811 205.022 134.973 207.238 133.972 210.972C133.971 210.978 133.969 210.984 133.967 210.99L49.9318 188.473C48.8648 188.187 48.2317 187.091 48.5175 186.024L63.0114 131.932C63.2973 130.865 64.394 130.232 65.4609 130.518Z" fill="#F5B3BD"/>
<path d="M114.022 161.759L113.576 162.617C112.659 162.023 111.828 161.601 111.194 161.432C109.896 161.084 107.1 162.554 105.382 165.937C104.358 167.965 104.482 169.108 105.533 169.39C106.198 169.568 106.688 169.533 111.205 167.447L111.314 167.476C111.171 167.885 110.962 168.542 110.485 170.137C109.95 171.948 109.609 172.105 109.486 172.072C109.316 172.026 109.113 171.856 107.497 170.098L106.453 171.027C108.2 172.854 108.548 173.162 109.212 173.34C110.325 173.639 111.104 172.771 111.76 170.445C112.359 168.336 112.548 167.691 112.817 167.183L115.413 162.131L114.022 161.759ZM106.808 166.302C107.96 164.043 110.076 162.391 111.018 162.643C111.575 162.792 112.339 163.279 113.01 163.74L111.839 166.01C106.849 168.251 106.518 168.312 106.271 168.245C106.054 168.187 106.178 167.541 106.808 166.302ZM117.749 172.663C120.361 173.363 122.452 171.803 123.672 169.413C124.944 166.888 124.074 164.883 121.879 164.295C119.267 163.595 117.068 165.126 115.864 167.52C114.575 170.04 115.554 172.075 117.749 172.663ZM118.177 171.436C116.832 171.075 116.295 169.805 117.306 167.823C118.162 166.114 119.612 165.029 121.343 165.493C122.688 165.853 123.225 167.123 122.229 169.109C121.358 170.814 119.908 171.9 118.177 171.436ZM144.038 170.232C143.312 170.037 142.853 170.08 138.335 172.166L138.243 172.141L139.773 169.272L138.522 168.936L134.436 176.952L135.827 177.324L137.737 173.596C142.692 171.362 143.038 171.306 143.224 171.356C143.332 171.385 143.373 171.478 143.136 171.928L139.768 178.38L141.159 178.753L144.483 172.405C145.084 171.274 144.904 170.464 144.038 170.232ZM147.904 180.743C150.516 181.443 152.607 179.883 153.827 177.493C155.099 174.968 154.229 172.963 152.034 172.375C149.422 171.675 147.223 173.206 146.019 175.6C144.73 178.12 145.709 180.155 147.904 180.743ZM148.332 179.516C146.987 179.155 146.45 177.885 147.461 175.903C148.317 174.194 149.767 173.109 151.498 173.573C152.843 173.933 153.38 175.203 152.384 177.189C151.513 178.894 150.063 179.98 148.332 179.516ZM165.641 176.203L163.555 175.644L160.339 179.238L159.597 180.215L159.427 180.17L159.69 179.064L160.325 174.778L158.378 174.257L153.998 182.193L155.235 182.525L158.865 175.712L159.097 175.775L158.673 177.483L158.153 181.153L159.776 181.588L162.552 178.522L163.734 177.017L163.966 177.079L160.644 183.974L161.88 184.305L165.641 176.203ZM168.007 186.129C170.619 186.829 172.71 185.269 173.93 182.88C175.203 180.355 174.332 178.349 172.138 177.761C169.526 177.061 167.327 178.592 166.122 180.986C164.834 183.507 165.812 185.541 168.007 186.129ZM168.435 184.902C167.091 184.542 166.553 183.272 167.565 181.29C168.42 179.581 169.87 178.496 171.601 178.959C172.946 179.32 173.483 180.59 172.487 182.576C171.617 184.281 170.166 185.366 168.435 184.902ZM185.018 181.395L182.996 185.358C179.675 187.798 179.433 187.899 179.309 187.866C179.201 187.837 179.16 187.743 179.409 187.246L182.716 180.778L181.479 180.447L179.429 184.452C176.136 186.85 175.909 186.955 175.785 186.922C175.677 186.893 175.621 186.795 175.885 186.302L179.254 179.85L178.017 179.519L174.693 185.867C174.092 186.998 174.164 187.779 174.983 187.999C175.601 188.164 176.049 188.102 178.502 186.241L178.217 186.811C177.631 187.946 177.688 188.723 178.507 188.943C179.141 189.113 179.608 189.039 182.293 186.992L182.385 187.017L181.072 189.448L182.169 189.742L186.255 181.726L185.018 181.395ZM180.181 190.915L179.177 190.149C178.626 189.737 178.319 189.522 177.963 189.427C177.515 189.306 177.056 189.349 176.296 190.023L175.583 190.644L176.541 191.398L177.654 190.52L178.704 191.298C179.271 191.715 179.525 191.882 180.004 192.011C180.56 192.16 181.029 191.954 181.468 191.244L181.815 190.691L180.548 190.351L180.181 190.915ZM194.174 183.848L192.263 187.577C187.309 189.81 186.962 189.867 186.777 189.817C186.669 189.788 186.627 189.694 186.864 189.244L190.233 182.792L188.842 182.419L185.517 188.767C184.916 189.898 185.097 190.709 185.962 190.94C186.689 191.135 187.147 191.092 191.665 189.007L191.758 189.031L190.227 191.901L191.479 192.236L195.565 184.221L194.174 183.848ZM78.9491 172.031L78.5039 172.889C77.5863 172.295 76.7551 171.874 76.1214 171.704C74.8232 171.356 72.0274 172.827 70.3093 176.209C69.2855 178.237 69.4099 179.381 70.4608 179.662C71.1254 179.84 71.615 179.806 76.1328 177.72L76.241 177.749C76.0982 178.158 75.8893 178.814 75.4122 180.409C74.8772 182.22 74.5369 182.378 74.4133 182.345C74.2433 182.299 74.0404 182.129 72.4244 180.371L71.3803 181.3C73.1271 183.126 73.4751 183.435 74.1396 183.613C75.2524 183.911 76.0316 183.043 76.6878 180.718C77.286 178.609 77.4754 177.964 77.744 177.456L80.3401 172.404L78.9491 172.031ZM71.7353 176.575C72.8872 174.316 75.003 172.663 75.9458 172.916C76.5022 173.065 77.2663 173.551 77.9378 174.013L76.7663 176.283C71.7763 178.524 71.4454 178.584 71.1981 178.518C70.9817 178.46 71.1051 177.814 71.7353 176.575ZM87.2971 174.715C84.7007 174.019 82.2339 175.313 80.9136 177.891C79.6574 180.354 80.2652 182.289 82.2125 182.811C83.3716 183.122 84.7063 183.148 87.6564 181.967L87.2652 180.769C84.476 181.844 83.4289 181.795 82.7025 181.601C81.4661 181.269 81.4646 179.977 82.3106 178.365L82.4108 178.176L85.1527 178.762C87.7709 179.315 88.8238 178.785 89.329 177.827C89.9746 176.592 89.1672 175.216 87.2971 174.715ZM88.033 177.347C87.8563 177.698 87.3808 178.05 85.3117 177.612L83.1149 177.156C84.1676 175.947 85.5172 175.547 86.8 175.891C87.7736 176.151 88.3223 176.762 88.033 177.347ZM99.8412 178.06C99.223 177.894 98.7756 177.956 96.3225 179.817L96.6076 179.247C97.1934 178.112 97.1366 177.335 96.3175 177.116C95.6838 176.946 95.2169 177.019 92.5316 179.066L92.4389 179.041L93.7528 176.611L92.6555 176.317L88.5697 184.332L89.8061 184.664L91.8288 180.7C95.1494 178.26 95.3917 178.16 95.5154 178.193C95.6236 178.222 95.6647 178.316 95.4157 178.812L92.1088 185.281L93.3452 185.612L95.3959 181.606C98.6886 179.209 98.9154 179.104 99.0391 179.137C99.1473 179.166 99.2038 179.264 98.9394 179.756L95.5707 186.208L96.8071 186.539L100.131 180.192C100.733 179.061 100.66 178.279 99.8412 178.06ZM108.98 180.078L108.531 180.951C107.675 180.374 106.817 179.929 106.184 179.759C104.808 179.391 102.729 180.722 101.813 182.531C101.219 183.697 101.325 184.785 102.314 185.05C102.577 185.121 102.896 185.106 103.192 185.053L99.2859 187.204L101.171 187.709L105.571 185.012L105.481 184.176C104.641 184.282 103.864 184.273 103.509 184.178C103.076 184.062 102.853 183.72 103.243 182.947C103.917 181.603 105.297 180.781 106.008 180.971C106.549 181.116 107.329 181.607 107.985 182.064L104.649 188.641L105.993 189.001L110.371 180.451L108.98 180.078ZM120.517 183.782L118.431 183.223L115.215 186.817L114.473 187.794L114.303 187.749L114.566 186.643L115.201 182.358L113.253 181.836L108.874 189.773L110.11 190.104L113.741 183.292L113.973 183.354L113.548 185.062L113.029 188.733L114.651 189.167L117.428 186.101L118.609 184.596L118.841 184.658L115.519 191.553L116.756 191.885L120.517 183.782ZM121.893 188.872L127.766 190.445L128.379 189.268L122.507 187.694L121.893 188.872ZM138.998 188.734L137.088 192.463C132.133 194.696 131.786 194.753 131.601 194.703C131.493 194.674 131.452 194.58 131.688 194.13L135.057 187.678L133.666 187.305L130.342 193.653C129.74 194.784 129.921 195.594 130.786 195.826C131.513 196.021 131.971 195.978 136.489 193.892L136.582 193.917L135.051 196.787L136.303 197.122L140.389 189.107L138.998 188.734ZM149.25 191.481L147.677 194.571L142.904 194.087L144.83 190.297L143.439 189.924L139.369 197.944L140.76 198.317L142.314 195.238L147.079 195.753L145.18 199.501L146.571 199.874L150.641 191.854L149.25 191.481ZM157.659 193.569C155.062 192.873 152.596 194.166 151.275 196.745C150.019 199.207 150.457 201.097 153.131 201.813C154.815 202.265 156.975 201.932 157.861 200.232C158.347 199.285 158.217 198.472 157.345 197.891L157.394 197.771C158.367 197.85 159.226 197.55 159.631 196.78C160.324 195.492 159.529 194.07 157.659 193.569ZM158.322 196.347C158.077 196.828 157.346 197.146 155.432 196.749L153.251 196.297C154.33 194.863 155.786 194.375 157.162 194.744C158.135 195.005 158.684 195.616 158.322 196.347ZM156.555 199.667C156.078 200.582 154.872 200.938 153.621 200.603C151.859 200.131 151.772 199.031 152.612 197.318L155.118 197.857C156.607 198.173 156.981 198.82 156.555 199.667ZM170.143 197.941L170.805 196.644L169.414 196.271L168.969 197.129C168.051 196.535 167.22 196.114 166.602 195.948C165.304 195.6 162.508 197.071 160.79 200.453C159.766 202.482 159.89 203.625 160.941 203.906C161.606 204.084 162.095 204.05 166.613 201.964L166.706 201.989L165.175 204.859L166.427 205.194L170.143 197.941ZM162.216 200.819C163.368 198.56 165.483 196.907 166.426 197.16C166.967 197.305 167.747 197.796 168.403 198.253L167.227 200.538C162.257 202.768 161.91 202.824 161.679 202.762C161.462 202.704 161.586 202.058 162.216 200.819ZM178.215 199.242L176.206 198.704L169.138 205.92L170.621 206.318L174.812 201.991L176.493 200.106L176.833 200.197L176.435 202.426L175.675 207.672L177.112 208.057L178.215 199.242ZM189.256 202.201L187.346 205.929C182.391 208.163 182.045 208.219 181.859 208.17C181.751 208.141 181.71 208.047 181.946 207.597L185.315 201.145L183.924 200.772L180.6 207.12C179.999 208.251 180.179 209.061 181.045 209.293C181.771 209.488 182.23 209.445 186.747 207.359L186.84 207.384L185.309 210.254L186.561 210.589L190.647 202.573L189.256 202.201ZM199.569 204.351L199.124 205.209C198.206 204.615 197.375 204.194 196.741 204.024C195.443 203.676 192.647 205.147 190.929 208.529C189.906 210.557 190.03 211.701 191.081 211.982C191.745 212.16 192.235 212.126 196.753 210.04L196.861 210.069C196.718 210.478 196.509 211.134 196.032 212.729C195.497 214.54 195.157 214.698 195.033 214.665C194.863 214.619 194.66 214.449 193.044 212.691L192 213.62C193.747 215.446 194.095 215.755 194.76 215.933C195.872 216.231 196.652 215.363 197.308 213.038C197.906 210.929 198.095 210.284 198.364 209.776L200.96 204.724L199.569 204.351ZM192.355 208.895C193.507 206.636 195.623 204.983 196.566 205.236C197.122 205.385 197.886 205.871 198.558 206.333L197.386 208.603C192.396 210.844 192.065 210.904 191.818 210.838C191.602 210.78 191.725 210.134 192.355 208.895ZM210.35 208.714L211.012 207.417L209.621 207.044L209.176 207.902C208.258 207.309 207.427 206.887 206.809 206.722C205.51 206.374 202.714 207.844 200.996 211.227C199.973 213.255 200.097 214.398 201.148 214.68C201.812 214.858 202.302 214.823 206.82 212.738L206.913 212.762L205.382 215.632L206.634 215.967L210.35 208.714ZM202.422 211.592C203.574 209.334 205.69 207.681 206.633 207.933C207.174 208.078 207.953 208.569 208.609 209.026L207.434 211.312C202.463 213.541 202.117 213.598 201.885 213.536C201.669 213.478 201.792 212.831 202.422 211.592ZM221.034 210.715L218.947 210.156L215.732 213.751L214.989 214.728L214.819 214.682L215.082 213.577L215.717 209.291L213.77 208.769L209.391 216.706L210.627 217.037L214.258 210.225L214.49 210.287L214.065 211.995L213.545 215.666L215.168 216.101L217.944 213.035L219.126 211.529L219.358 211.592L216.036 218.487L217.273 218.818L221.034 210.715Z" fill="#171614"/>
<path d="M249.45 223.273L248.737 214.642L241.619 219.574L249.45 223.273ZM233.474 213.383C234.512 212.537 235.436 212.058 236.289 211.871C237.127 211.686 237.947 211.772 238.81 212.142C240.597 212.908 242.549 214.875 245.003 218.172L246.207 217.277C243.755 213.982 241.595 211.703 239.401 210.763C238.274 210.281 237.136 210.149 235.967 210.406C234.812 210.66 233.679 211.281 232.526 212.22L233.474 213.383Z" fill="#F5B3BD"/>
</svg>
