<svg width="300" height="94" viewBox="0 0 300 94" fill="none" xmlns="http://www.w3.org/2000/svg">
<path fill-rule="evenodd" clip-rule="evenodd" d="M63.8648 41.512C61.9021 41.512 60.5154 40.7866 59.7048 39.336C58.8941 37.8426 58.4888 35.3893 58.4888 31.976V9.70397C58.4888 6.29064 58.9368 3.85863 59.8328 2.40797C60.7288 0.914635 62.1581 0.167969 64.1208 0.167969C65.5714 0.167969 66.7021 0.573302 67.5128 1.38397C68.2808 2.15197 68.7928 3.2613 69.0488 4.71197C69.3048 6.11997 69.4328 8.29597 69.4328 11.24C69.4328 13.7573 69.4114 15.8053 69.3688 17.384L65.9128 17.768V7.33597C65.9128 6.05597 65.7634 5.1173 65.4648 4.51997C65.1661 3.92263 64.6754 3.62397 63.9928 3.62397C63.3101 3.62397 62.8194 3.92263 62.5208 4.51997C62.2221 5.1173 62.0728 6.05597 62.0728 7.33597V34.344C62.0728 35.624 62.2221 36.5626 62.5208 37.16C62.8194 37.7573 63.3101 38.056 63.9928 38.056C64.6754 38.056 65.1661 37.7573 65.4648 37.16C65.7634 36.5626 65.9128 35.624 65.9128 34.344V23.272L69.3688 23.656L69.4328 28.648C69.4328 31.3786 69.3688 33.4906 69.2408 34.984C69.1128 36.4346 68.8994 37.544 68.6008 38.312C68.3448 39.0373 67.9394 39.6773 67.3848 40.232C66.9154 40.7013 66.4034 41.0213 65.8488 41.192C65.2941 41.4053 64.6328 41.512 63.8648 41.512ZM14.5358 41H17.7998V0.679966H11.9758L10.5678 15.592C10.1411 20.0293 9.73578 25.2133 9.35178 31.144H9.03178C8.64778 25.2133 8.24244 20.0293 7.81578 15.592L6.40778 0.679966H0.519775V41H3.78378V28.648C3.78378 24.2533 3.67711 16.0826 3.46378 4.13597H3.78378L7.30378 41H10.9518L14.5998 4.13597H14.9198C14.6638 14.888 14.5358 23.0586 14.5358 28.648V41ZM34.4328 18.28C33.4514 17 31.8514 16.36 29.6328 16.36H28.9288V0.679966H25.3448V41H29.3768C31.6808 41 33.3448 40.3386 34.3688 39.016C35.3928 37.6933 35.9048 35.752 35.9048 33.192V23.912C35.9048 21.3946 35.4141 19.5173 34.4328 18.28ZM38.0168 0.679966V41H41.6008V0.679966H38.0168ZM31.7448 20.712C32.2141 21.3093 32.4488 22.4186 32.4488 24.04V33.32C32.4488 34.8986 32.2141 36.008 31.7448 36.648C31.3181 37.2453 30.5928 37.544 29.5688 37.544H28.9288V19.816H29.5688C30.5928 19.816 31.3181 20.1146 31.7448 20.712ZM93.6623 38.6128C92.5427 39.0285 91.4542 39.4567 90.3983 39.8968V28.648C90.3983 23.0586 90.5263 14.888 90.7823 4.13597H90.4623L86.8143 41H83.1663L79.6463 4.13597H79.3263C79.5396 16.0826 79.6463 24.2533 79.6463 28.648V41H76.3823V0.679966H82.2703L83.6783 15.592C84.1049 20.0293 84.5103 25.2133 84.8943 31.144H85.2143C85.5983 25.2133 86.0036 20.0293 86.4303 15.592L87.8383 0.679966H93.6623V38.6128ZM111.926 33.5227C111.948 33.0311 111.959 32.5155 111.959 31.976V9.70397C111.959 6.29064 111.554 3.85863 110.743 2.40797C109.933 0.914635 108.546 0.167969 106.583 0.167969C104.621 0.167969 103.191 0.914635 102.295 2.40797C101.399 3.85863 100.951 6.29064 100.951 9.70397V31.976C100.951 33.5722 101.04 34.9584 101.217 36.1347C102.311 35.8186 103.426 35.5131 104.562 35.2186C104.544 34.9473 104.535 34.6558 104.535 34.344V7.33597C104.535 6.05597 104.685 5.1173 104.983 4.51997C105.282 3.92263 105.773 3.62397 106.455 3.62397C107.138 3.62397 107.629 3.92263 107.927 4.51997C108.226 5.1173 108.375 6.05597 108.375 7.33597V34.2887C109.54 34.0222 110.724 33.7667 111.926 33.5227ZM122.72 31.7115C121.586 31.8643 120.463 32.0266 119.353 32.1984L119.602 25.576C119.688 23.9973 119.88 22.8453 120.178 22.12C120.52 21.352 121.138 20.7333 122.034 20.264V19.944C121.181 19.432 120.605 18.8346 120.306 18.152C120.05 17.4266 119.88 16.2746 119.794 14.696L119.282 4.19997H117.362V0.679966H119.73C120.754 0.679966 121.48 0.935966 121.906 1.44797C122.376 1.9173 122.632 2.70663 122.674 3.81597L122.93 16.808C122.93 17.4053 123.037 17.832 123.25 18.088C123.464 18.344 123.826 18.472 124.338 18.472H125.682V0.679966H128.946V18.472H130.29C130.802 18.472 131.165 18.344 131.378 18.088C131.592 17.832 131.698 17.4053 131.698 16.808L131.954 3.81597C131.997 2.70663 132.232 1.9173 132.658 1.44797C133.128 0.935966 133.874 0.679966 134.898 0.679966H137.266V4.19997H135.346L134.834 14.696C134.749 16.2746 134.557 17.4266 134.258 18.152C134.002 18.8346 133.448 19.432 132.594 19.944V20.264C133.49 20.7333 134.088 21.352 134.386 22.12C134.728 22.8453 134.941 23.9973 135.026 25.576L135.21 30.4588C134.096 30.5339 132.989 30.6178 131.891 30.7105L131.762 23.464C131.762 22.8666 131.656 22.44 131.442 22.184C131.229 21.928 130.866 21.8 130.354 21.8H128.946V30.982C127.849 31.0918 126.761 31.2103 125.682 31.3375V21.8H124.274C123.762 21.8 123.4 21.928 123.186 22.184C122.973 22.44 122.866 22.8666 122.866 23.464L122.72 31.7115ZM146.504 30.0148C145.302 30.0291 144.107 30.0536 142.92 30.0882V0.679966H150.92V4.19997H146.504V18.408H149.448V21.864H146.504V30.0148ZM160.571 30.3219C159.49 30.2612 158.402 30.2089 157.307 30.1651V0.679966H163.195L164.603 15.592C165.019 19.9142 165.414 24.9448 165.789 30.6838C164.894 30.6097 163.993 30.5414 163.087 30.479L160.571 4.13597H160.251C160.465 16.0826 160.571 24.2533 160.571 28.648V30.3219ZM171.323 31.223V28.648C171.323 23.0586 171.451 14.888 171.707 4.13597H171.387L168.734 30.9503C167.884 30.8667 167.028 30.7884 166.167 30.7155C166.543 24.9633 166.939 19.9221 167.355 15.592L168.763 0.679966H174.587V31.6195C173.509 31.4786 172.421 31.3463 171.323 31.223ZM195.291 35.7139C194.12 35.3912 192.925 35.0805 191.707 34.7821V0.679966H202.587V37.982C201.423 37.5748 200.228 37.1807 199.003 36.8002V4.19997H195.291V35.7139ZM211.117 39.336C211.928 40.7866 213.315 41.512 215.277 41.512C217.24 41.512 218.669 40.7866 219.565 39.336C220.461 37.8426 220.909 35.3893 220.909 31.976V9.70397C220.909 6.29064 220.504 3.85863 219.693 2.40797C218.883 0.914635 217.496 0.167969 215.533 0.167969C213.571 0.167969 212.141 0.914635 211.245 2.40797C210.349 3.85863 209.901 6.29064 209.901 9.70397V31.976C209.901 35.3893 210.307 37.8426 211.117 39.336ZM216.877 37.16C216.579 37.7573 216.088 38.056 215.405 38.056C214.723 38.056 214.232 37.7573 213.933 37.16C213.635 36.5626 213.485 35.624 213.485 34.344V7.33597C213.485 6.05597 213.635 5.1173 213.933 4.51997C214.232 3.92263 214.723 3.62397 215.405 3.62397C216.088 3.62397 216.579 3.92263 216.877 4.51997C217.176 5.1173 217.325 6.05597 217.325 7.33597V34.344C217.325 35.624 217.176 36.5626 216.877 37.16ZM245.512 41H242.248V28.648C242.248 23.0586 242.376 14.888 242.632 4.13597H242.312L238.664 41H235.016L231.496 4.13597H231.176C231.39 16.0826 231.496 24.2533 231.496 28.648V41H228.232V0.679966H234.12L235.528 15.592C235.955 20.0293 236.36 25.2133 236.744 31.144H237.064C237.448 25.2133 237.854 20.0293 238.28 15.592L239.688 0.679966H245.512V41ZM254.017 39.336C254.828 40.7866 256.215 41.512 258.177 41.512C260.14 41.512 261.569 40.7866 262.465 39.336C263.361 37.8426 263.809 35.3893 263.809 31.976V9.70397C263.809 6.29064 263.404 3.85863 262.593 2.40797C261.783 0.914635 260.396 0.167969 258.433 0.167969C256.471 0.167969 255.041 0.914635 254.145 2.40797C253.249 3.85863 252.801 6.29064 252.801 9.70397V31.976C252.801 35.3893 253.207 37.8426 254.017 39.336ZM259.777 37.16C259.479 37.7573 258.988 38.056 258.305 38.056C257.623 38.056 257.132 37.7573 256.833 37.16C256.535 36.5626 256.385 35.624 256.385 34.344V7.33597C256.385 6.05597 256.535 5.1173 256.833 4.51997C257.132 3.92263 257.623 3.62397 258.305 3.62397C258.988 3.62397 259.479 3.92263 259.777 4.51997C260.076 5.1173 260.225 6.05597 260.225 7.33597V34.344C260.225 35.624 260.076 36.5626 259.777 37.16ZM277.468 0.679966H281.052V41H277.468V22.12H276.636C272.455 22.12 270.364 19.816 270.364 15.208V0.679966H273.948V15.08C273.948 16.4026 274.183 17.3413 274.652 17.896C275.122 18.408 275.847 18.664 276.828 18.664H277.468V0.679966ZM297.926 18.28C296.945 17 295.345 16.36 293.126 16.36H292.166V0.679966H288.582V41H292.87C295.174 41 296.838 40.3386 297.862 39.016C298.886 37.6933 299.398 35.752 299.398 33.192V23.912C299.398 21.3946 298.908 19.5173 297.926 18.28ZM295.11 20.712C295.58 21.3093 295.814 22.4186 295.814 24.04V33.32C295.814 34.8986 295.58 36.008 295.11 36.648C294.684 37.2453 293.958 37.544 292.934 37.544H292.166V19.816H292.934C293.958 19.816 294.684 20.1146 295.11 20.712Z" fill="#D0C9BD"/>
<path d="M228 63C228 66.9044 225.962 70.7341 222.038 74.3293C218.113 77.925 212.378 81.2092 205.207 83.9879C190.872 89.5428 171 93 149 93C127 93 107.128 89.5428 92.7928 83.9879C85.6219 81.2092 79.8872 77.925 75.9623 74.3293C72.0381 70.7341 70 66.9044 70 63C70 59.0956 72.0381 55.2659 75.9623 51.6707C79.8872 48.075 85.6219 44.7908 92.7928 42.0121C107.128 36.4572 127 33 149 33C171 33 190.872 36.4572 205.207 42.0121C212.378 44.7908 218.113 48.075 222.038 51.6707C225.962 55.2659 228 59.0956 228 63Z" stroke="#D0C9BD" stroke-width="2"/>
<path d="M108.983 56.8H106.487L101.783 62.488L99.5512 62.848L100.823 56.8H98.6632L95.8792 70H98.0392L99.1432 64.768L101.543 64.384L103.919 70H106.463L103.463 63.424L108.983 56.8ZM124.161 58.048L124.617 55.912H122.457L122.145 57.328C120.585 56.824 119.217 56.536 118.257 56.536C116.241 56.536 112.761 59.752 111.585 65.32C110.889 68.656 111.513 70.264 113.145 70.264C114.177 70.264 114.873 70.024 120.609 65.248H120.753L119.649 70H121.593L124.161 58.048ZM113.793 65.296C114.585 61.576 117.009 58.36 118.473 58.36C119.313 58.36 120.633 58.768 121.761 59.176L120.945 62.944C114.609 68.104 114.129 68.32 113.769 68.32C113.433 68.32 113.361 67.336 113.793 65.296ZM141.714 56.8H139.53L136.314 62.176L134.466 62.416L135.786 56.8H133.722L132.642 62.656L130.866 62.896L130.002 56.8H127.842L129.018 63.592L124.794 70H127.17L130.506 64.648L132.258 64.432L130.938 70H133.002L134.082 64.192L136.002 63.928L136.866 70H139.194L137.826 63.04L141.714 56.8ZM153.675 55.912L153.363 57.328C151.803 56.824 150.435 56.536 149.451 56.536C147.435 56.536 143.955 59.752 142.779 65.32C142.083 68.656 142.707 70.264 144.339 70.264C145.371 70.264 146.067 70.024 151.803 65.248H151.971C151.923 65.896 151.875 66.928 151.803 69.424C151.731 72.256 151.299 72.616 151.107 72.616C150.843 72.616 150.483 72.448 147.459 70.528L146.307 72.28C149.547 74.248 150.171 74.56 151.203 74.56C152.931 74.56 153.723 73 153.771 69.376C153.819 66.088 153.843 65.08 154.035 64.24L155.835 55.912H153.675ZM144.987 65.296C145.779 61.576 148.203 58.36 149.667 58.36C150.531 58.36 151.827 58.768 152.979 59.176L152.163 62.92C145.803 68.104 145.347 68.32 144.963 68.32C144.627 68.32 144.555 67.336 144.987 65.296ZM163.309 70.264C167.365 70.264 169.789 67.192 170.629 63.256C171.493 59.104 169.453 56.536 166.045 56.536C161.989 56.536 159.397 59.608 158.581 63.544C157.693 67.696 159.901 70.264 163.309 70.264ZM163.453 68.32C161.365 68.32 160.093 66.688 160.789 63.424C161.365 60.616 163.045 58.48 165.733 58.48C167.821 58.48 169.093 60.112 168.421 63.376C167.821 66.184 166.141 68.32 163.453 68.32ZM187.246 56.8H184.006L180.742 63.256L180.046 64.96H179.782L179.734 63.256L178.99 56.8H175.966L172.702 70H174.622L177.238 58.72H177.598L177.646 61.36L178.318 66.88H180.838L183.67 61.36L184.798 58.72H185.158L183.022 70H184.942L187.246 56.8ZM201.847 60.592C201.847 59.272 201.631 57.712 201.415 56.8H199.063C199.279 57.784 199.639 59.704 199.639 60.664C199.639 61.408 198.919 62.776 197.383 64.696L195.031 68.08H194.719L194.383 64.696L193.255 56.8H191.023L193.135 70.144L192.727 71.752C192.535 72.544 192.415 72.616 192.151 72.616C191.887 72.616 191.647 72.496 190.543 71.128L188.719 68.896L187.015 70.264L188.671 72.184C190.279 74.056 190.975 74.56 192.199 74.56C193.567 74.56 194.455 73.84 195.007 71.608L195.391 70.12C199.447 65.2 201.847 62.176 201.847 60.592Z" fill="#D0C9BD"/>
</svg>
