<svg width="45" height="45" viewBox="0 0 45 45" fill="none" xmlns="http://www.w3.org/2000/svg">
<circle cx="22.5" cy="22.5" r="19.5" fill="white"/>
<path d="M22.5 41.25C12.1444 41.25 3.75 32.8556 3.75 22.5C3.75 12.1444 12.1444 3.75 22.5 3.75C32.8556 3.75 41.25 12.1444 41.25 22.5C41.25 32.8556 32.8556 41.25 22.5 41.25ZM18.2063 36.8756C16.3564 32.9518 15.2848 28.7067 15.0506 24.375H7.61625C7.9811 27.2604 9.1761 29.9778 11.0561 32.1969C12.936 34.4161 15.42 36.0415 18.2063 36.8756ZM18.8062 24.375C19.0894 28.9481 20.3962 33.2438 22.5 37.035C24.6606 33.1435 25.9227 28.8178 26.1938 24.375H18.8062ZM37.3838 24.375H29.9494C29.7152 28.7067 28.6436 32.9518 26.7938 36.8756C29.58 36.0415 32.064 34.4161 33.9439 32.1969C35.8239 29.9778 37.0189 27.2604 37.3838 24.375ZM7.61625 20.625H15.0506C15.2848 16.2933 16.3564 12.0482 18.2063 8.12438C15.42 8.95852 12.936 10.5839 11.0561 12.8031C9.1761 15.0222 7.9811 17.7396 7.61625 20.625ZM18.8081 20.625H26.1919C25.9214 16.1824 24.6599 11.8566 22.5 7.965C20.3394 11.8565 19.0773 16.1822 18.8062 20.625H18.8081ZM26.7938 8.12438C28.6436 12.0482 29.7152 16.2933 29.9494 20.625H37.3838C37.0189 17.7396 35.8239 15.0222 33.9439 12.8031C32.064 10.5839 29.58 8.95852 26.7938 8.12438Z" fill="#171614"/>
</svg>
